<?xml version="1.0" encoding="utf-8"?>
<!-- Generator: Adobe Illustrator 26.0.2, SVG Export Plug-In . SVG Version: 6.00 Build 0)  -->
<svg version="1.1" id="Calque_1" xmlns="http://www.w3.org/2000/svg" xmlns:xlink="http://www.w3.org/1999/xlink" x="0px" y="0px"
	 viewBox="0 0 1920 450" style="enable-background:new 0 0 1920 450;" xml:space="preserve">
<style type="text/css">
	.st0{opacity:0.3;fill:none;stroke:#FFFFFF;stroke-miterlimit:10;}
</style>
<path class="st0" d="M0,101.4l-6.9-6.9l-7.4,7.5l7.4,7.4l6.9-6.8V101.4z M0,323.5l-6.9-6.9l-7.4,7.5l7.4,7.4l6.9-6.8V323.5z
	 M0,434.6l-6.9-6.9l-7.4,7.4l7.4,7.5l6.9-6.9V434.6z M0,212.4l-6.9-6.8l-7.4,7.4l7.4,7.5l6.9-6.9V212.4z M249.4,450v6.6h12.4l9,8.9
	l9-8.9h12.4V450H249.4z M138.3,450v6.6h12.4l9,8.9l9-8.9h12.5l-0.1-6.6H138.3z M360.4,450v6.6h12.5l9,8.9l8.9-8.9h12.5V450H360.4z
	 M27.2,450v6.6h12.5l9,8.9l9-8.9h12.4V450H27.2z M803.7,450v6.8h12.5l9,9l8.9-9h12.5V450H803.7z M914.8,450v6.8h12.4l9,9l9-9h12.5
	l-0.1-6.8H914.8z M692.7,450v6.8h12.4l9,9l9-9h12.4V450H692.7z M471.5,450v6.6h12.4l9,8.9l9-8.9h12.4V450H471.5z M582.6,450
	l-0.1,6.2h12.1l9,9l9-9h11.9V450H582.6z M1025.9,450l-0.1,6.8h12.5l9,9l9-9h12.4V450H1025.9z M1136.9,450v6.8h12.5l8.9,9l9-9h12.5
	V450H1136.9z M1692.2,450v6.8h12.5l9,9l9-9h12.4V450H1692.2z M1581.2,450v6.8h12.4l9,9l9-9h12.4V450H1581.2z M1470.1,450v6.8h12.5
	l8.9,9l9-9h12.5l-0.1-6.8H1470.1z M1359.1,450l-0.1,6.8h12.5l9,9l9-9h12.4V450H1359.1z M1248,450v6.8h12.4l9,9l9-9h12.4V450H1248z
	 M1803.3,456.8h12.4l9,9l9-9h12.5l-0.1-6.8h-42.8V456.8z M1935.8,405l-9,9h-6.8v36h-5.6l-0.1,6.8h12.5l9,9l9-9h12.4v-12.4l9-9l-9-9
	v-12.5l-12.4,0.1L1935.8,405z M1935.8,293.9l-9,9h-6.8v42.8h6.8l9,9l9-9h12.4v-12.4l9-9l-9-9v-12.4h-12.4L1935.8,293.9z
	 M1936.2,182.4l-9,9h-7.2v43.3l6.8-0.1l9,9l9-9l12.8,0.1v-12.9l9-9l-9-9v-12.4h-12.4L1936.2,182.4z M1936.2,71.4l-9,9l-7.2-0.1v42.9
	h7.2l9,9l9-9h12.4v-12.4l9-9l-9-9V80.3l-12.4,0.1L1936.2,71.4z M0.5,450H0v-0.5l-6.9-6.9l-8.8,8.8l8.8,8.9l8.9-8.9L0.5,450z
	 M0,416.9l-6.9-6.9l-8.8,8.9l8.8,8.8l6.9-6.9L0,416.9z M0,338.4l-6.9-6.9l-8.8,8.9l8.8,8.8l6.9-6.8L0,338.4z M0,305.8l-6.9-6.8
	l-8.8,8.8l8.8,8.8l6.9-6.8L0,305.8z M111.6,450H96.8l-1.4,1.4l8.8,8.9l8.8-8.9L111.6,450z M0,227.3l-6.9-6.8l-8.8,8.8l8.8,8.9
	l6.9-6.9L0,227.3z"/>
<path class="st0" d="M0,194.8l-6.9-6.9l-8.8,8.8l8.8,8.9l6.9-6.9L0,194.8z M222.7,450h-14.8l-1.5,1.4l8.9,8.9l8.8-8.9L222.7,450z
	 M0,116.3l-6.9-6.9l-8.8,8.8l8.8,8.9l6.9-6.9L0,116.3z M0,83.7l-6.9-6.9l-8.8,8.9l8.8,8.8L0,87.6V83.7z M333.7,450h-14.8l-1.4,1.4
	l8.8,8.9l8.9-8.9L333.7,450z M0,5.2l-6.9-6.8l-8.8,8.8l8.8,8.8L0,9.2V5.2z"/>
<path class="st0" d="M0.6-9.1L9.4-18l8.8,8.8L9.4-0.3L0.6-9.1z"/>
<path class="st0" d="M444.8,450H430l-1.5,1.4l8.9,8.9l8.8-8.9L444.8,450z M104.2-1.6L102.6,0h3.2L104.2-1.6z"/>
<path class="st0" d="M79.1-9.1l8.8-8.8l8.8,8.8L88-0.3L79.1-9.1z"/>
<path class="st0" d="M111.6-9.1l8.8-8.8l8.8,8.8l-8.8,8.8L111.6-9.1z"/>
<path class="st0" d="M555.8,450H541l-1.4,1.4l8.9,8.9l8.8-8.9L555.8,450z M214.7-1.1L213.6,0h2.1L214.7-1.1z M198.7,0l8.5-8.5
	l-8.8-8.9l-8.9,8.9l8.6,8.5H198.7z M231-17.4l-8.9,8.9l8.5,8.5h0.7l8.5-8.5L231-17.4z M325.7-1.1l-1,1.1h2.1L325.7-1.1z M309.8,0
	l8.5-8.5l-8.9-8.9l-8.8,8.9l8.5,8.5H309.8z M342.4,0l8.5-8.5l-8.9-8.9l-8.8,8.9l8.5,8.5H342.4z M436.8-1.1L435.7,0h2.2L436.8-1.1z
	 M420.8,0l8.5-8.5l-8.8-8.9l-8.8,8.9l8.5,8.5H420.8z M453.4,0l8.5-8.5l-8.8-8.9l-8.9,8.9l8.6,8.5H453.4z M547.9-1.1L546.8,0h2.1
	L547.9-1.1z M531.9,0l8.5-8.5l-8.8-8.9l-8.9,8.9l8.5,8.5H531.9z M564.5,0l8.5-8.5l-8.8-8.9l-8.9,8.9l8.5,8.5H564.5z M658.9-1.1
	l-1,1.1h2.1L658.9-1.1z M643,0l8.5-8.5l-8.9-8.9l-8.8,8.9l8.5,8.5H643z M675.5,0l8.6-8.5l-8.9-8.9l-8.8,8.9l8.5,8.5H675.5z M770-1.1
	L768.9,0h2.1L770-1.1z M754,0l8.5-8.5l-8.8-8.9l-8.9,8.9l8.6,8.5H754z M786.6,0l8.5-8.5l-8.8-8.9l-8.9,8.9L786,0H786.6z M881-1.1
	L880,0h2.1L881-1.1z M865.1,0l8.5-8.5l-8.8-8.9l-8.9,8.9l8.5,8.5H865.1z M897.7,0l8.5-8.5l-8.9-8.9l-8.8,8.9L897,0H897.7z
	 M992.1-1.1L991,0h2.2L992.1-1.1z M976.1,0l8.6-8.5l-8.9-8.9L967-8.5l8.5,8.5H976.1z M1008.7,0l8.5-8.5l-8.8-8.9l-8.8,8.9l8.5,8.5
	H1008.7z M665.7,450h-14.3l-1.7,1.7l8.9,8.8l8.8-8.8L665.7,450z M776.8,450h-14.3l-1.7,1.7l8.8,8.8l8.9-8.8L776.8,450z M887.9,450
	h-14.4l-1.7,1.7l8.9,8.8l8.8-8.8L887.9,450z M998.9,450h-14.3l-1.7,1.7l8.9,8.8l8.8-8.8L998.9,450z M1110,450h-14.4l-1.6,1.7
	l8.8,8.8l8.9-8.8L1110,450z M1221.1,450h-14.4l-1.7,1.7l8.9,8.8l8.8-8.8L1221.1,450z M1332.1,450h-14.3l-1.7,1.7l8.8,8.8l8.9-8.8
	L1332.1,450z M1443.2,450h-14.4l-1.6,1.7l8.8,8.8l8.8-8.8L1443.2,450z M1102.8-1.4l-1.4,1.4h2.8L1102.8-1.4z"/>
<path class="st0" d="M1077.7-8.9l8.8-8.8l8.8,8.8l-8.8,8.8L1077.7-8.9z"/>
<path class="st0" d="M1110.3-8.9l8.8-8.8l8.8,8.8l-8.8,8.8L1110.3-8.9z"/>
<path class="st0" d="M1554.2,450h-14.3l-1.7,1.7l8.9,8.8l8.8-8.8L1554.2,450z M1213.9-1.4l-1.5,1.4h2.9L1213.9-1.4z"/>
<path class="st0" d="M1188.7-8.8l8.8-8.8l8.8,8.8l-8.8,8.8L1188.7-8.8z"/>
<path class="st0" d="M1221.3-8.8l8.8-8.8l8.8,8.8l-8.8,8.8L1221.3-8.8z"/>
<path class="st0" d="M1665.3,450h-14.4l-1.6,1.7l8.8,8.8l8.9-8.8L1665.3,450z M1324.9-1.4l-1.4,1.4h2.9L1324.9-1.4z"/>
<path class="st0" d="M1299.8-8.8l8.8-8.8l8.8,8.8l-8.8,8.8L1299.8-8.8z"/>
<path class="st0" d="M1332.4-8.9l8.8-8.8l8.8,8.8l-8.8,8.8L1332.4-8.9z"/>
<path class="st0" d="M1776.4,450H1762l-1.7,1.7l8.9,8.8l8.8-8.8L1776.4,450z M1436-1.4l-1.4,1.4h2.8L1436-1.4z"/>
<path class="st0" d="M1410.9-8.9l8.8-8.8l8.8,8.8l-8.8,8.8L1410.9-8.9z"/>
<path class="st0" d="M1443.4-8.8l8.8-8.8l8.8,8.8l-8.8,8.8L1443.4-8.8z"/>
<path class="st0" d="M1871.4,451.7l8.8,8.8l8.9-8.8l-1.7-1.7h-14.3L1871.4,451.7z M1548.5,0l-1.4-1.4l-1.5,1.4H1548.5z"/>
<path class="st0" d="M1521.9-8.8l8.8-8.8l8.8,8.8l-8.8,8.8L1521.9-8.8z"/>
<path class="st0" d="M1554.5-8.8l8.8-8.8l8.8,8.8l-8.8,8.8L1554.5-8.8z"/>
<path class="st0" d="M1928.3,379.8l-8.3-8.3v16.7L1928.3,379.8z M1659.6,0l-1.5-1.4l-1.4,1.4H1659.6z"/>
<path class="st0" d="M1633-8.9l8.8-8.8l8.8,8.8l-8.8,8.8L1633-8.9z"/>
<path class="st0" d="M1665.6-8.9l8.8-8.8l8.8,8.8l-8.8,8.8L1665.6-8.9z"/>
<path class="st0" d="M1928.3,268.8l-8.3-8.3v16.6L1928.3,268.8z M1771.4,0l-1.8-1.8l-1.8,1.8H1771.4z"/>
<path class="st0" d="M1744.5-9.3l8.8-8.8l8.8,8.8l-8.8,8.8L1744.5-9.3z"/>
<path class="st0" d="M1777-9.3l8.8-8.8l8.8,8.8l-8.8,8.8L1777-9.3z"/>
<path class="st0" d="M1928.8,157.3l-8.8-8.7v17.5L1928.8,157.3z M1882.5,0l-1.8-1.8l-1.9,1.8H1882.5z"/>
<path class="st0" d="M1855.5-9.2l8.8-8.8l8.8,8.8l-8.8,8.8L1855.5-9.2z"/>
<path class="st0" d="M1888.1-9.2l8.8-8.8l8.8,8.8l-8.8,8.8L1888.1-9.2z"/>
<path class="st0" d="M1928.8,46.2l-8.8-8.7V55L1928.8,46.2z M18.3,435.1L9.4,444l-8.8-8.9L0,435.7v13.8l0.5,0.5h26.7l0.1-5.9
	L18.3,435.1z M9.4,426.3l8.9,8.8l9-8.9l-0.1-12.5H14.6V401H2.1L0,403.1v13.8l2,2l-2,1.9v13.8l0.6,0.5L9.4,426.3z M14.6,358.2v-12.7
	h12.6l0.1-12.4l-9-9l-8.9,8.8l-8.8-8.8L0,324.7v13.7l2,2l-2,2v13.7l2.1,2.1L14.6,358.2z M9.4,315.2l8.9,8.9l9-9l-0.1-12.5H14.6V290
	H2.1L0,292.1v13.7l2,2l-2,2v13.7l0.6,0.6L9.4,315.2z M82.8,401v-12.4l-9-9l-8.8,8.9l-8.9-8.9l-7.4,7.5l8.8,8.8l-8.8,8.9l9,8.9h12.4
	v-12.6L82.8,401z M41.2,379.6l7.5-7.4l-8.9-8.9l8.9-8.8l-9-9H27.2v12.7H14.6l-0.1,12.4l9,9l8.9-8.8L41.2,379.6z"/>
<path class="st0" d="M48.7,387.1l-7.5-7.5l-8.8,8.9l-8.9-8.9l-9,9l0.1,12.4l12.6,0.1v12.6h12.5l9-8.9l-8.9-8.9L48.7,387.1z
	 M82.8,358.2H70.1v-12.7H57.7l-9,9l8.8,8.8l-8.8,8.9l7.4,7.4l8.9-8.8l8.8,8.8l9-9V358.2z M129.3,435.1l-8.8,8.9l-8.8-8.9l-7.5,7.5
	l7.4,7.4h26.7v-5.9L129.3,435.1z M96.7,435.1l7.5-7.4l-8.8-8.8l8.8-8.9l-9-9H82.8l-0.1,12.7H70.1v12.5l9,8.9l8.8-8.8L96.7,435.1z
	 M96.7,435.1l-8.8,8.9l-8.8-8.9l-9,9v5.9h26.7l7.4-7.4L96.7,435.1z"/>
<path class="st0" d="M125.6,401h-12.4l-9,9l8.8,8.9l-8.8,8.8l7.5,7.4l8.8-8.8l8.8,8.8l9-8.9v-12.5h-12.6L125.6,401z M14.6,247.1
	v-12.6h12.6l0.1-12.5l-9-9l-8.9,8.9L0.6,213L0,213.6v13.7l2,2l-2,2V245l2.1,2.1H14.6z M9.4,204.2l8.9,8.8l9-9l-0.1-12.4H14.6v-12.7
	H2.1L0,181v13.8l2,1.9l-2,2v13.7l0.6,0.6L9.4,204.2z M82.8,290v-12.5l-9-9l-8.8,8.9l-8.9-8.9l-7.4,7.5l8.8,8.9l-8.8,8.8l9,9
	l12.4-0.1V290H82.8z"/>
<path class="st0" d="M41.2,268.5l7.5-7.4l-8.9-8.8l8.9-8.9l-9-9l-12.5,0.1v12.6H14.6l-0.1,12.5l9,8.9l8.9-8.8L41.2,268.5z
	 M48.7,293.7l-8.9-8.8l8.9-8.9l-7.5-7.5l-8.8,8.9l-8.9-8.9l-9,9l0.1,12.5h12.6v12.6l12.5,0.1L48.7,293.7z"/>
<path class="st0" d="M65,259.7l8.8,8.8l9-8.9v-12.5H70.1v-12.6l-12.4-0.1l-9,9l8.8,8.9l-8.8,8.8l7.4,7.4L65,259.7z M138.3,345.5
	v-12.4l-9-9l-8.8,8.8l-8.8-8.8l-7.5,7.4l8.8,8.9l-8.8,8.8l9,9h12.4l0.1-12.7L138.3,345.5z M96.7,324.1l7.5-7.5l-8.8-8.8l8.8-8.8
	l-9-9H82.8l-0.1,12.6H70.1v12.5l9,9l8.8-8.9L96.7,324.1z M82.8,358.2h12.4l9-9l-8.8-8.8l8.8-8.9l-7.5-7.4l-8.8,8.8l-8.8-8.8l-9,9
	v12.4h12.6L82.8,358.2z M120.5,315.2l8.8,8.9l9-9v-12.5h-12.6l-0.1-12.6h-12.4l-9,9l8.8,8.8l-8.8,8.8l7.5,7.5L120.5,315.2z
	 M193.8,401l0.1-12.4l-9-9l-8.9,8.9l-8.8-8.9l-7.5,7.5l8.9,8.8l-8.9,8.9l9,8.9h12.5v-12.6L193.8,401z"/>
<path class="st0" d="M150.9,363.3l8.8-8.8l-9-9h-12.4v12.7h-12.7v12.4l9,9l8.8-8.8l8.9,8.8l7.4-7.4L150.9,363.3z M159.7,387.1
	l-7.4-7.5l-8.9,8.9l-8.8-8.9l-9,9V401l12.7,0.1v12.6h12.4l9-8.9l-8.8-8.9L159.7,387.1z"/>
<path class="st0" d="M193.8,358.2h-12.6v-12.7h-12.5l-9,9l8.9,8.8l-8.9,8.9l7.5,7.4l8.8-8.8l8.9,8.8l9-9L193.8,358.2z M240.4,435.1
	l-8.8,8.9l-8.9-8.9l-7.4,7.5l7.4,7.4h26.7v-5.9L240.4,435.1z M206.4,418.9l8.9-8.9l-9-9h-12.5v12.7h-12.6l-0.1,12.5l9,8.9l8.9-8.8
	l8.8,8.8l7.5-7.4L206.4,418.9z"/>
<path class="st0" d="M207.8,435.1L199,444l-8.9-8.9l-9,9v5.9h26.8l7.4-7.4L207.8,435.1z M236.7,401h-12.5l-8.9,9l8.8,8.9l-8.8,8.8
	l7.4,7.4l8.9-8.8l8.8,8.8l9-8.9v-12.5h-12.7V401z M14.6,136.1v-12.7h12.6l0.1-12.5l-9-8.9l-8.9,8.8L0.6,102L0,102.6v13.7l2,1.9l-2,2
	V134l2.1,2.1H14.6z"/>
<path class="st0" d="M9.4,93.1l8.9,8.9l9-9l-0.1-12.5H14.6V67.9L2.1,67.8L0,70v13.7l2,2l-2,1.9v13.8l0.6,0.6L9.4,93.1z M82.8,178.9
	v-12.4l-9-9l-8.8,8.8l-8.9-8.8l-7.4,7.4l8.8,8.9l-8.8,8.8l9,9h12.4v-12.7H82.8z M41.2,157.5l7.5-7.5l-8.9-8.8l8.9-8.8l-9-9H27.2V136
	l-12.6,0.1l-0.1,12.4l9,9l8.9-8.9L41.2,157.5z"/>
<path class="st0" d="M48.7,182.6l-8.9-8.8l8.9-8.9l-7.5-7.4l-8.8,8.8l-8.9-8.8l-9,9l0.1,12.4h12.6v12.7h12.5L48.7,182.6z M65,148.6
	l8.8,8.9l9-9v-12.4L70.1,136v-12.6H57.7l-9,9l8.8,8.8l-8.8,8.8l7.4,7.5L65,148.6z M125.6,247.1l0.1-12.6h12.6V222l-9-9l-8.8,8.9
	l-8.8-8.9l-7.5,7.5l8.8,8.8l-8.8,8.9l9,8.9L125.6,247.1z M96.7,213l7.5-7.4l-8.8-8.9l8.8-8.8l-9-9H82.8l-0.1,12.7H70.1V204l9,9
	l8.8-8.8L96.7,213z"/>
<path class="st0" d="M82.8,247.1h12.4l9-8.9l-8.8-8.9l8.8-8.8l-7.5-7.5l-8.8,8.9l-8.8-8.9l-9,9v12.5h12.6L82.8,247.1z M120.5,204.2
	l8.8,8.8l9-9v-12.4h-12.6l-0.1-12.7h-12.4l-9,9l8.8,8.8l-8.8,8.9l7.5,7.4L120.5,204.2z M193.8,290l0.1-12.5l-9-9l-8.9,8.9l-8.8-8.9
	l-7.5,7.5l8.9,8.9l-8.9,8.8l9,9l12.5-0.1V290H193.8z M152.3,268.5l7.4-7.4l-8.8-8.8l8.8-8.9l-9-9l-12.4,0.1v12.6h-12.7v12.5l9,8.9
	l8.8-8.8L152.3,268.5z M159.7,293.7l-8.8-8.8l8.8-8.9l-7.4-7.5l-8.9,8.9l-8.8-8.9l-9,9V290h12.7v12.6l12.4,0.1L159.7,293.7z
	 M176,259.7l8.9,8.8l9-8.9l-0.1-12.5h-12.6v-12.6l-12.5-0.1l-9,9l8.9,8.9l-8.9,8.8l7.5,7.4L176,259.7z M240.4,324.1l-8.8,8.8
	l-8.9-8.8l-7.4,7.4l8.8,8.9l-8.8,8.8l8.9,9h12.5v-12.7h12.7v-12.4L240.4,324.1z M206.4,307.8l8.9-8.8l-9-9h-12.5v12.6h-12.6
	l-0.1,12.5l9,9l8.9-8.9l8.8,8.9l7.5-7.5L206.4,307.8z"/>
<path class="st0" d="M215.3,331.5l-7.5-7.4l-8.8,8.8l-8.9-8.8l-9,9l0.1,12.4h12.6v12.7h12.5l9-9l-8.9-8.8L215.3,331.5z M236.7,290
	h-12.5l-8.9,9l8.8,8.8l-8.8,8.8l7.4,7.5l8.9-8.9l8.8,8.9l9-9v-12.5h-12.7V290z M304.9,401v-12.4l-9-9l-8.8,8.9l-8.9-8.9l-7.4,7.5
	l8.8,8.8l-8.8,8.9l9,8.9h12.4v-12.6L304.9,401z M262,363.3l8.8-8.8l-9-9h-12.4l-0.1,12.7h-12.6v12.4l9,9l8.8-8.8l8.8,8.8l7.5-7.4
	L262,363.3z M270.8,387.1l-7.5-7.5l-8.8,8.9l-8.8-8.9l-9,9V401l12.6,0.1l0.1,12.6h12.4l9-8.9l-8.8-8.9L270.8,387.1z M304.9,358.2
	h-12.7v-12.7h-12.4l-9,9l8.8,8.8l-8.8,8.9l7.4,7.4l8.9-8.8l8.8,8.8l9-9L304.9,358.2z M351.5,435.1l-8.9,8.9l-8.8-8.9l-7.5,7.5
	l7.4,7.4h26.7l0.1-5.9L351.5,435.1z M317.5,418.9l8.8-8.9l-9-9h-12.4v12.7h-12.7v12.5l9,8.9l8.8-8.8l8.9,8.8l7.4-7.4L317.5,418.9z
	 M318.9,435.1L310,444l-8.8-8.9l-9,9v5.9h26.7l7.4-7.4L318.9,435.1z M347.8,401h-12.5l-9,9l8.9,8.9l-8.9,8.8l7.5,7.4l8.8-8.8
	l8.9,8.8l9-8.9l-0.1-12.5h-12.6L347.8,401z M14.6,25V12.4l12.6-0.1L27.3,0H0v5.2l2,2l-2,2v13.7L2.1,25H14.6z M82.8,67.9V55.4l-9-9
	L65,55.3l-8.9-8.9l-7.4,7.5l8.8,8.8l-8.8,8.9l9,9l12.4-0.1V67.9H82.8z"/>
<path class="st0" d="M41.2,46.4l7.5-7.4l-8.9-8.9l8.9-8.8l-9-9H27.2V25H14.6l-0.1,12.4l9,9l8.9-8.8L41.2,46.4z"/>
<path class="st0" d="M48.7,71.6l-8.9-8.9l8.9-8.8l-7.5-7.5l-8.8,8.9l-8.9-8.9l-9,9l0.1,12.5h12.6v12.6l12.5,0.1L48.7,71.6z M48.7,39
	l7.4,7.4l8.9-8.8l8.8,8.8l9-9V25H70.1V12.3H57.7l-9,9l8.8,8.8L48.7,39z M125.6,136.1l0.1-12.7h12.6v-12.5l-9-8.9l-8.8,8.8l-8.8-8.8
	l-7.5,7.4l8.8,8.8l-8.8,8.9l9,9H125.6z M96.7,102l7.5-7.5l-8.8-8.8l8.8-8.9l-9-9l-12.4,0.1l-0.1,12.6H70.1V93l9,9l8.8-8.9L96.7,102z
	"/>
<path class="st0" d="M82.8,136.1h12.4l9-9l-8.8-8.9l8.8-8.8l-7.5-7.4l-8.8,8.8l-8.8-8.8l-9,8.9v12.5h12.6L82.8,136.1z M120.5,93.1
	l8.8,8.9l9-9V80.5h-12.6l-0.1-12.6l-12.4-0.1l-9,9l8.8,8.9l-8.8,8.8l7.5,7.5L120.5,93.1z M193.8,178.9l0.1-12.4l-9-9l-8.9,8.8
	l-8.8-8.8l-7.5,7.4l8.9,8.9l-8.9,8.8l9,9h12.5v-12.7H193.8z M152.3,157.5l7.4-7.5l-8.8-8.8l8.8-8.8l-9-9h-12.4V136l-12.7,0.1v12.4
	l9,9l8.8-8.9L152.3,157.5z"/>
<path class="st0" d="M159.7,182.6l-8.8-8.8l8.8-8.9l-7.4-7.4l-8.9,8.8l-8.8-8.8l-9,9v12.4h12.7v12.7h12.4L159.7,182.6z M176,148.6
	l8.9,8.9l9-9l-0.1-12.4l-12.6-0.1v-12.6h-12.5l-9,9l8.9,8.8l-8.9,8.8l7.5,7.5L176,148.6z M236.7,247.1v-12.6h12.7V222l-9-9l-8.8,8.9
	l-8.9-8.9l-7.4,7.5l8.8,8.8l-8.8,8.9l8.9,8.9L236.7,247.1z M207.8,213l7.5-7.4l-8.9-8.9l8.9-8.8l-9-9h-12.5v12.7h-12.6l-0.1,12.4
	l9,9l8.9-8.8L207.8,213z"/>
<path class="st0" d="M193.8,247.1h12.5l9-8.9l-8.9-8.9l8.9-8.8l-7.5-7.5l-8.8,8.9l-8.9-8.9l-9,9l0.1,12.5h12.6L193.8,247.1z
	 M231.6,204.2l8.8,8.8l9-9v-12.4h-12.7v-12.7h-12.5l-8.9,9l8.8,8.8l-8.8,8.9l7.4,7.4L231.6,204.2z M304.9,290v-12.5l-9-9l-8.8,8.9
	l-8.9-8.9l-7.4,7.5l8.8,8.9l-8.8,8.8l9,9l12.4-0.1V290H304.9z M262,252.3l8.8-8.9l-9-9l-12.4,0.1l-0.1,12.6h-12.6v12.5l9,8.9
	l8.8-8.8l8.8,8.8l7.5-7.4L262,252.3z M270.8,276l-7.5-7.5l-8.8,8.9l-8.8-8.9l-9,9V290h12.6l0.1,12.6l12.4,0.1l9-9l-8.8-8.8
	L270.8,276z M304.9,247.1h-12.7v-12.6l-12.4-0.1l-9,9l8.8,8.9l-8.8,8.8l7.4,7.4l8.9-8.8l8.8,8.8l9-8.9L304.9,247.1z M351.5,324.1
	l-8.9,8.8l-8.8-8.8l-7.5,7.4l8.9,8.9l-8.9,8.8l9,9h12.5v-12.7h12.6l0.1-12.4L351.5,324.1z M317.5,307.8l8.8-8.8l-9-9h-12.4v12.6
	h-12.7v12.5l9,9l8.8-8.9l8.9,8.9l7.4-7.5L317.5,307.8z M326.3,331.5l-7.4-7.4l-8.9,8.8l-8.8-8.8l-9,9v12.4h12.7v12.7h12.4l9-9
	l-8.8-8.8L326.3,331.5z M347.8,290h-12.5l-9,9l8.9,8.8l-8.9,8.8l7.5,7.5l8.8-8.9l8.9,8.9l9-9l-0.1-12.5h-12.6L347.8,290z M416,401
	v-12.4l-9-9l-8.9,8.9l-8.8-8.9l-7.4,7.5l8.8,8.8l-8.8,8.9l8.9,8.9h12.5v-12.6L416,401z"/>
<path class="st0" d="M373,363.3l8.9-8.8l-9-9h-12.5v12.7h-12.6l-0.1,12.4l9,9l8.9-8.8l8.8,8.8l7.5-7.4L373,363.3z M381.9,387.1
	l-7.5-7.5l-8.8,8.9l-8.9-8.9l-9,9l0.1,12.4l12.6,0.1v12.6h12.5l9-8.9l-8.9-8.9L381.9,387.1z M416,358.2h-12.7v-12.7h-12.5l-8.9,9
	l8.8,8.8l-8.8,8.9l7.4,7.4l8.8-8.8l8.9,8.8l9-9L416,358.2z M462.5,435.1l-8.8,8.9l-8.9-8.9l-7.4,7.5l7.4,7.4h26.7v-5.9L462.5,435.1z
	 M428.5,418.9l8.9-8.9l-9-9H416l-0.1,12.7h-12.6v12.5l8.9,8.9l8.9-8.8l8.8,8.8l7.5-7.4L428.5,418.9z M429.9,435.1l-8.8,8.9l-8.9-8.9
	l-8.9,9v5.9H430l7.4-7.4L429.9,435.1z M458.8,401h-12.4l-9,9l8.8,8.9l-8.8,8.8l7.4,7.4l8.9-8.8l8.8,8.8l9-8.9v-12.5h-12.7L458.8,401
	z M125.6,25l0.1-12.6l12.6-0.1V0h-32.5l7.2,7.2l-8.8,8.8l9,9H125.6z"/>
<path class="st0" d="M82.8,25h12.4l9-9l-8.8-8.8l7.2-7.2H70.1v12.3l12.6,0.1L82.8,25z M181.2,80.5V67.9h12.6l0.1-12.5l-9-9l-8.9,8.9
	l-8.8-8.9l-7.5,7.5l8.9,8.8l-8.9,8.9l9,9L181.2,80.5z M152.3,46.4l7.4-7.4l-8.8-8.9l8.8-8.8l-9-9h-12.4V25h-12.7v12.4l9,9l8.8-8.8
	L152.3,46.4z"/>
<path class="st0" d="M138.3,80.5l12.4,0.1l9-9l-8.8-8.9l8.8-8.8l-7.4-7.5l-8.9,8.9l-8.8-8.9l-9,9v12.5h12.7V80.5z M176,37.6l8.9,8.8
	l9-9l-0.1-11.8h-13.2V12.3h-11.9l-9,9l8.9,8.8l-8.9,8.9l7.5,7.4L176,37.6z M236.7,136.1v-12.7h12.7v-12.5l-9-8.9l-8.8,8.8l-8.9-8.8
	l-7.4,7.4l8.8,8.8l-8.8,8.9l8.9,9H236.7z M207.8,102l7.5-7.5l-8.9-8.8l8.9-8.9l-9-9l-12.5,0.1v12.6h-12.6L181.1,93l9,9l8.9-8.9
	L207.8,102z"/>
<path class="st0" d="M193.8,136.1h12.5l9-9l-8.9-8.9l8.9-8.8l-7.5-7.4l-8.8,8.8l-8.9-8.8l-9,8.9l0.1,12.5h12.6L193.8,136.1z
	 M231.6,93.1l8.8,8.9l9-9V81.1h-13.3V67.9l-11.9-0.1l-8.9,9l8.8,8.9l-8.8,8.8l7.4,7.5L231.6,93.1z M304.9,178.9v-12.4l-9-9l-8.8,8.8
	l-8.9-8.8l-7.4,7.4l8.8,8.9l-8.8,8.8l9,9h12.4v-12.7H304.9z M263.3,157.5l7.5-7.5l-8.8-8.8l8.8-8.8l-9-9h-12.4l-0.1,12.6l-12.6,0.1
	v12.4l9,9l8.8-8.9L263.3,157.5z"/>
<path class="st0" d="M270.8,182.6l-8.8-8.8l8.8-8.9l-7.5-7.4l-8.8,8.8l-8.8-8.8l-9,9v12.4h12.6l0.1,12.7h12.4L270.8,182.6z
	 M287.1,148.6l8.8,8.9l9-9v-11.9h-13.2l-0.1-13.2h-11.8l-9,9l8.8,8.8l-8.8,8.8l7.4,7.5L287.1,148.6z M351.5,213l-8.9,8.9l-8.8-8.9
	l-7.5,7.5l8.9,8.8l-8.9,8.9l9,8.9h12.5v-12.6h12.6l0.1-12.5L351.5,213z M317.5,196.7l8.8-8.8l-9-9h-12.4v12.7h-12.7V204l9,9l8.8-8.8
	l8.9,8.8l7.4-7.4L317.5,196.7z M326.3,220.5l-7.4-7.5l-8.9,8.9l-8.8-8.9l-9,9v12.5h12.7v12.6h12.4l9-8.9l-8.8-8.9L326.3,220.5z"/>
<path class="st0" d="M347.2,178.9h-11.9l-9,9l8.9,8.8l-8.9,8.9l7.5,7.4l8.8-8.8l8.9,8.8l9-9l-0.1-11.8l-13.2-0.1L347.2,178.9z
	 M416,290v-12.5l-9-9l-8.9,8.9l-8.8-8.9l-7.4,7.5l8.8,8.9l-8.8,8.8l8.9,9l12.5-0.1V290H416z M373,252.3l8.9-8.9l-9-9l-12.5,0.1v12.6
	h-12.6l-0.1,12.5l9,8.9l8.9-8.8l8.8,8.8l7.5-7.4L373,252.3z M381.9,276l-7.5-7.5l-8.8,8.9l-8.9-8.9l-9,9l0.1,12.5h12.6v12.6
	l12.5,0.1l9-9l-8.9-8.8L381.9,276z M416,247.7h-13.3v-13.2l-11.9-0.1l-8.9,9l8.8,8.9l-8.8,8.8l7.4,7.4l8.8-8.8l8.9,8.8l9-8.9V247.7z
	 M462.5,324.1l-8.8,8.8l-8.9-8.8l-7.4,7.4l8.8,8.9l-8.8,8.8l9,9h12.4v-12.7h12.7v-12.4L462.5,324.1z"/>
<path class="st0" d="M428.5,307.8l8.9-8.8l-9-9H416l-0.1,12.6h-12.6v12.5l8.9,9l8.9-8.9l8.8,8.9l7.5-7.5L428.5,307.8z M437.4,331.5
	l-7.5-7.4l-8.8,8.8l-8.9-8.8l-8.9,9v12.4h12.6l0.1,12.7h12.4l9-9l-8.9-8.8L437.4,331.5z M458.2,290h-11.8l-9,9l8.8,8.8l-8.8,8.8
	l7.4,7.5l8.9-8.9l8.8,8.9l9-9v-11.9h-13.2L458.2,290z M527,401v-12.4l-9-9l-8.8,8.9l-8.8-8.9l-7.5,7.5l8.9,8.8l-8.9,8.9l9,8.9h12.4
	l0.1-12.6L527,401z M484.1,363.3l8.8-8.8l-9-9h-12.4v12.7h-12.7v12.4l9,9l8.8-8.8l8.9,8.8l7.4-7.4L484.1,363.3z M492.9,387.1
	l-7.4-7.5l-8.9,8.9l-8.8-8.9l-9,9V401l12.7,0.1v12.6h12.4l9-8.9l-8.8-8.9L492.9,387.1z"/>
<path class="st0" d="M527,358.8h-13.2v-13.3h-11.9l-9,9l8.9,8.8l-8.9,8.9l7.5,7.4l8.8-8.8l8.8,8.8l9-9V358.8z M573.6,435.1l-8.9,8.9
	l-8.8-8.9l-7.4,7.5l7.3,7.4h26.8v-5.9L573.6,435.1z M539.6,418.9l8.9-8.9l-9-9H527v12.7h-12.7v12.5l9,8.9l8.9-8.8l8.8,8.8l7.5-7.4
	L539.6,418.9z M541,435.1l-8.8,8.9l-8.9-8.9l-9,9v5.9H541l7.5-7.4L541,435.1z M569.3,401h-11.9l-8.9,9l8.8,8.9l-8.8,8.8l7.4,7.4
	l8.8-8.8l8.9,8.8l9-8.9l-0.1-11.9h-13.2V401z M236.1,25.6V12.9h12.7V0.5L248.3,0h-17L231,0.3L230.6,0h-14.9l7.8,7.8l-8.8,8.8l9,9
	H236.1z"/>
<path class="st0" d="M193.8,25.6h11.9l9-9l-8.9-8.8l7.8-7.8h-14.9l-0.3,0.3L198.1,0H181l-0.4,0.5v11.8l13.2,0.1V25.6z M291.6,81.1
	l0.1-12.6l12.6-0.1V56l-9-9l-8.8,8.9l-8.8-8.9l-7.5,7.5l8.8,8.8l-8.8,8.9l9,8.9H291.6z M262.8,47l7.4-7.4l-8.8-8.9l8.8-8.8l-9-9
	h-12.4v12.7h-12.7V38l9,9l8.8-8.8L262.8,47z"/>
<path class="st0" d="M249.4,81.1h11.8l9-8.9l-8.8-8.9l8.8-8.8l-7.4-7.5l-8.9,8.9l-8.8-8.9l-9,9v11.9h13.2L249.4,81.1z M286.5,38.2
	l8.8,8.8l9-9V25.6h-12.6l-0.1-12.7h-12.4l-9,9l8.8,8.8l-8.8,8.9l7.5,7.4L286.5,38.2z M347.2,136.6V124h12.6l0.1-12.5l-9-8.9
	l-8.9,8.8l-8.8-8.8l-7.5,7.4l8.9,8.8l-8.9,8.9l9,9L347.2,136.6z M318.3,102.6l7.4-7.5l-8.8-8.9l8.8-8.8l-8.9-9h-12.5v12.7h-12.7
	v12.5l9,9l8.8-8.9L318.3,102.6z"/>
<path class="st0" d="M304.9,136.6l11.9,0.1l8.9-9l-8.8-8.9l8.8-8.8l-7.4-7.4l-8.9,8.8l-8.8-8.8l-9,8.9v11.9h13.3V136.6z M342,93.7
	l8.9,8.9l9-9l-0.1-12.5h-12.6V68.4h-12.5l-9,9l8.9,8.8l-8.9,8.9l7.5,7.5L342,93.7z M415.4,179.5v-12.4l-9-9l-8.8,8.8l-8.9-8.8
	l-7.4,7.4l8.8,8.9l-8.8,8.8l8.9,9h12.5v-12.7H415.4z M372.4,141.8l8.9-8.9l-9-8.9h-12.5v12.6h-12.6l-0.1,12.5l9,9l8.9-8.9l8.8,8.9
	l7.5-7.5L372.4,141.8z M381.3,165.5l-7.5-7.4l-8.8,8.8l-8.9-8.8l-9,9l0.1,11.8h13.2v13.3h11.9l9-9l-8.9-8.8L381.3,165.5z"/>
<path class="st0" d="M415.4,136.6h-12.7V124h-12.5l-8.9,8.9l8.8,8.9l-8.8,8.8l7.4,7.5l8.9-8.9l8.8,8.9l9-9L415.4,136.6z
	 M461.9,213.6l-8.8,8.8l-8.9-8.8l-7.4,7.5l8.8,8.8l-8.8,8.9l9,8.9h12.4l0.1-12.6l12.6-0.1v-12.4L461.9,213.6z M428,197.3l8.8-8.8
	l-9-9h-12.4l-0.1,12.6l-12.6,0.1v12.4l9,9l8.8-8.8l8.8,8.8l7.5-7.4L428,197.3z M436.8,221.1l-7.5-7.5l-8.8,8.8l-8.8-8.8l-9,9v11.9
	h13.2l0.1,13.2h11.8l9-8.9l-8.8-8.9L436.8,221.1z"/>
<path class="st0" d="M458.2,179.5h-12.4l-9,9l8.8,8.8l-8.8,8.9l7.4,7.4l8.9-8.8l8.8,8.8l9-9v-12.4l-12.6-0.1L458.2,179.5z
	 M526.4,290.6l0.1-12.5l-9-9l-8.9,8.9l-8.8-8.9l-7.5,7.5l8.9,8.8l-8.9,8.9l9,9l12.5-0.1v-12.6L526.4,290.6z M483.5,252.9l8.8-8.9
	l-9-9h-12.4v12.7h-12.7v12.5l9,8.9l8.8-8.8l8.9,8.8l7.4-7.4L483.5,252.9z"/>
<path class="st0" d="M492.3,276.6l-7.4-7.5L476,278l-8.8-8.9l-9,9V290h13.3v13.2l11.8,0.1l9-9l-8.8-8.9L492.3,276.6z M526.4,247.7
	h-12.6V235h-12.5l-9,9l8.9,8.9l-8.9,8.8l7.5,7.4l8.8-8.8l8.9,8.8l9-8.9L526.4,247.7z M573,324.7l-8.8,8.8l-8.9-8.8l-7.4,7.4l8.8,8.9
	l-8.8,8.8l8.9,9h12.5v-12.7H582v-12.4L573,324.7z M539,308.4l8.9-8.9l-9-9l-12.5,0.1v12.6h-12.6l-0.1,12.5l9,9l8.9-8.9l8.8,8.9
	l7.5-7.5L539,308.4z M547.9,332.1l-7.5-7.4l-8.8,8.8l-8.9-8.8l-9,9l0.1,11.8H527v13.3h11.9l9-9L539,341L547.9,332.1z M569.3,290.6
	l-12.5-0.1l-8.9,9l8.8,8.9l-8.8,8.8l7.4,7.5l8.9-8.9l8.8,8.9l9-9v-12.5h-12.7V290.6z M637.5,401.3v-12.1l-9-9l-8.8,8.8l-8.9-8.8
	l-7.4,7.5l8.8,8.8l-8.8,8.8l9,9h12.1v-13L637.5,401.3z"/>
<path class="st0" d="M594.5,363.9l8.9-8.8l-9-9H582l-0.1,12.7h-12.6v12.4l9,9l8.8-8.8l8.8,8.8l7.5-7.4L594.5,363.9z M603.4,387.7
	l-7.5-7.5l-8.8,8.8l-8.8-8.8l-9,9V401l13.2,0.1v13.2h11.9l9-9l-8.9-8.8L603.4,387.7z M637.5,358.8h-12.7v-12.7h-12.4l-9,9l8.8,8.8
	l-8.8,8.9l7.4,7.4l8.9-8.8l8.8,8.8l9-9V358.8z M342,0.3L341.7,0h-14.9l7.8,7.8l-8.9,8.8l9,9h12.5V12.9h12.6l0.1-12.4L359.4,0h-17
	L342,0.3z M304.3,25.6h12.5l8.9-9l-8.8-8.8l7.8-7.8h-14.9l-0.4,0.3L309.1,0h-17l-0.5,0.5v12.4h12.7L304.3,25.6z M390.1,63.3
	l-8.8,8.9l8.9,8.9h12.5V68.5l12.7-0.1V56l-9-9l-8.8,8.9l-8.9-8.9l-7.4,7.5L390.1,63.3z"/>
<path class="st0" d="M356.1,47l8.9-8.8l8.8,8.8l7.5-7.4l-8.9-8.9l8.9-8.8l-9-9h-12.5v12.7h-12.6L347.1,38L356.1,47z"/>
<path class="st0" d="M359.8,81.1h12.5l9-8.9l-8.9-8.9l8.9-8.8l-7.5-7.5l-8.8,8.9l-8.9-8.9l-9,9l0.1,12.4l12.6,0.1L359.8,81.1z
	 M381.3,39.6l7.4,7.4l8.9-8.8l8.8,8.8l9-9V25.6h-12.7V12.9h-12.5l-8.9,9l8.8,8.8L381.3,39.6z M461.9,102.6l-8.8,8.8l-8.9-8.8
	l-7.4,7.4l8.8,8.8l-8.8,8.9l9,9l12.4-0.1l0.1-12.6h12.6v-12.5L461.9,102.6z M402.7,81.1v12.5l9,9l8.8-8.9l8.8,8.9l7.5-7.5l-8.8-8.9
	l8.8-8.8l-9-9h-12.4l-0.1,12.7L402.7,81.1z M436.8,110l-7.5-7.4l-8.8,8.8l-8.8-8.8l-9,8.9V124h12.6l0.1,12.6l12.4,0.1l9-9l-8.8-8.9
	L436.8,110z"/>
<path class="st0" d="M436.8,95.1l7.4,7.5l8.9-8.9l8.8,8.9l9-9V81.1h-12.6l-0.1-12.7h-12.4l-9,9l8.8,8.8L436.8,95.1z M526.4,179.5
	l0.1-12.4l-9-9l-8.9,8.8l-8.8-8.8l-7.5,7.4l8.9,8.9l-8.9,8.8l9,9h12.5v-12.7H526.4z M483.5,141.8l8.8-8.9l-9-8.9h-12.4v12.6h-12.7
	v12.5l9,9l8.8-8.9l8.9,8.9l7.4-7.5L483.5,141.8z M492.3,165.5l-7.4-7.4l-8.9,8.8l-8.8-8.8l-9,9v12.4h12.7v12.7h12.4l9-9l-8.8-8.8
	L492.3,165.5z"/>
<path class="st0" d="M526.4,136.6h-12.6V124h-12.5l-9,8.9l8.9,8.9l-8.9,8.8l7.5,7.5l8.8-8.9l8.9,8.9l9-9L526.4,136.6z M573,213.6
	l-8.8,8.8l-8.9-8.8l-7.4,7.5l8.8,8.8l-8.8,8.9l8.9,8.9h12.5v-12.6L582,235v-12.4L573,213.6z M539,197.3l8.9-8.8l-9-9h-12.5v12.6
	l-12.6,0.1l-0.1,12.4l9,9l8.9-8.8l8.8,8.8l7.5-7.4L539,197.3z M547.9,221.1l-7.5-7.5l-8.8,8.8l-8.9-8.8l-9,9l0.1,12.4l12.6,0.1v12.6
	h12.5l9-8.9l-8.9-8.9L547.9,221.1z"/>
<path class="st0" d="M569.3,179.5h-12.5l-8.9,9l8.8,8.8l-8.8,8.9l7.4,7.4l8.9-8.8l8.8,8.8l9-9v-12.4l-12.7-0.1V179.5z M637.5,290.6
	v-12.5l-9-9l-8.8,8.9l-8.9-8.9l-7.4,7.5l8.8,8.8l-8.8,8.9l9,9l12.4-0.1v-12.6L637.5,290.6z M594.5,252.9l8.9-8.9l-9-9H582l-0.1,12.7
	h-12.6v12.5l9,8.9l8.8-8.8l8.8,8.8l7.5-7.4L594.5,252.9z M603.4,276.6l-7.5-7.5l-8.8,8.9l-8.8-8.9l-9,9v12.5h12.6l0.1,12.6l12.4,0.1
	l9-9l-8.9-8.9L603.4,276.6z M637.5,247.7h-12.7V235h-12.4l-9,9l8.8,8.9l-8.8,8.8l7.4,7.4l8.9-8.8l8.8,8.8l9-8.9V247.7z M684.1,324.7
	l-8.9,8.8l-8.8-8.8l-7.5,7.4l8.9,8.9l-8.9,8.8l9,9H680v-13l13-0.1v-12L684.1,324.7z"/>
<path class="st0" d="M650.1,308.4l8.8-8.9l-9-9l-12.4,0.1v12.6h-12.7v12.5l9,9l8.8-8.9l8.9,8.9l7.4-7.5L650.1,308.4z M658.9,332.1
	l-7.4-7.4l-8.9,8.8l-8.8-8.8l-9,9v12.4h12.7v12.7h12.4l9-9l-8.8-8.8L658.9,332.1z M680.4,290.6l-12.5-0.1l-9,9l8.9,8.9l-8.9,8.8
	l7.5,7.5l8.8-8.9l8.9,8.9l8.9-9v-12.5h-12.6L680.4,290.6z M453.1,0.3L452.8,0h-14.9l7.7,7.8l-8.8,8.8l9,9h12.4l0.1-12.7h12.6V0.5
	L470.5,0h-17.1L453.1,0.3z M402.7,12.9h12.6l0.1,12.7h12.4l9-9L428,7.8l7.7-7.8h-14.9l-0.3,0.3L420.2,0h-17.1l-0.4,0.5L402.7,12.9z
	 M501.2,63.3l-8.9,8.9l9,8.9h12.5V68.5l12.6-0.1l0.1-12.4l-9-9l-8.9,8.9l-8.8-8.9l-7.5,7.5L501.2,63.3z"/>
<path class="st0" d="M467.2,47l8.8-8.8l8.9,8.8l7.4-7.4l-8.8-8.9l8.8-8.8l-9-9h-12.4v12.7h-12.7V38L467.2,47z"/>
<path class="st0" d="M470.9,81.1h12.4l9-8.9l-8.8-8.9l8.8-8.8l-7.4-7.5l-8.9,8.9l-8.8-8.9l-9,9v12.4l12.7,0.1L470.9,81.1z
	 M492.3,39.6l7.5,7.4l8.8-8.8l8.9,8.8l9-9l-0.1-12.4h-12.6V12.9h-12.5l-9,9l8.9,8.8L492.3,39.6z M573,102.6l-8.8,8.8l-8.9-8.8
	l-7.4,7.4l8.8,8.8l-8.8,8.9l8.9,9l12.5-0.1V124H582v-12.5L573,102.6z M513.8,81.1l-0.1,12.5l9,9l8.9-8.9l8.8,8.9l7.5-7.5l-8.9-8.9
	l8.9-8.8l-9-9h-12.5v12.7L513.8,81.1z M547.9,110l-7.5-7.4l-8.8,8.8l-8.9-8.8l-9,8.9l0.1,12.5h12.6v12.6l12.5,0.1l9-9l-8.9-8.9
	L547.9,110z M547.9,95.1l7.4,7.5l8.9-8.9l8.8,8.9l9-9V81.1h-12.7V68.4h-12.5l-8.9,9l8.8,8.8L547.9,95.1z M637.5,179.5v-12.4l-9-9
	l-8.8,8.8l-8.9-8.8l-7.4,7.4l8.8,8.9l-8.8,8.8l9,9h12.4v-12.7H637.5z"/>
<path class="st0" d="M594.5,141.8l8.9-8.9l-9-8.9H582l-0.1,12.6h-12.6v12.5l9,9l8.8-8.9l8.8,8.9l7.5-7.5L594.5,141.8z M603.4,165.5
	l-7.5-7.4l-8.8,8.8l-8.8-8.8l-9,9v12.4h12.6l0.1,12.7h12.4l9-9l-8.9-8.8L603.4,165.5z M637.5,136.6h-12.7V124h-12.4l-9,8.9l8.8,8.9
	l-8.8,8.8l7.4,7.5l8.9-8.9l8.8,8.9l9-9V136.6z M684.1,213.6l-8.9,8.8l-8.8-8.8l-7.5,7.5l8.9,8.8l-8.9,8.9l9,8.9h12.5v-12.6L693,235
	v-12.4L684.1,213.6z M650.1,197.3l8.8-8.8l-9-9h-12.4v12.6l-12.7,0.1v12.4l9,9l8.8-8.8l8.9,8.8l7.4-7.4L650.1,197.3z M658.9,221.1
	l-7.4-7.5l-8.9,8.8l-8.8-8.8l-9,9V235l12.7,0.1v12.6h12.4l9-8.9l-8.8-8.9L658.9,221.1z"/>
<path class="st0" d="M680.4,179.5h-12.5l-9,9l8.9,8.8l-8.9,8.9l7.5,7.4l8.8-8.8l8.9,8.8l8.9-9v-12.4l-12.6-0.1L680.4,179.5z
	 M748.5,290.2l0.1-12.1l-9-9l-8.8,8.9l-8.9-8.9l-7.4,7.5l8.8,8.8l-8.8,8.9l8.9,9l12.1-0.1v-13L748.5,290.2z M705.6,252.9l8.9-8.9
	l-9-9H693v12.7h-12.6l-0.1,12.5l9,8.9l8.9-8.8l8.8,8.8l7.5-7.4L705.6,252.9z M714.5,276.6l-7.5-7.5l-8.8,8.9l-8.9-8.9l-9,9l0.1,12.5
	H693v12.6l12.5,0.1l9-9l-8.9-8.9L714.5,276.6z M748.5,247.7h-12.6V235h-12.5l-8.9,9l8.8,8.9l-8.8,8.8l7.4,7.4l8.9-8.8l8.8,8.8l9-8.9
	L748.5,247.7z M564.2,0.3L563.8,0h-14.9l7.8,7.8l-8.8,8.8l8.9,9h12.5V12.9H582V0.5L581.5,0h-17L564.2,0.3z M513.8,12.9h12.6v12.7
	h12.5l9-9L539,7.8l7.8-7.8h-14.9l-0.3,0.3L531.2,0h-17l-0.5,0.5L513.8,12.9z M612.2,63.3l-8.8,8.9l9,8.9h12.4V68.5l12.7-0.1V56l-9-9
	l-8.8,8.9l-8.9-8.9l-7.4,7.5L612.2,63.3z"/>
<path class="st0" d="M578.3,47l8.8-8.8l8.8,8.8l7.5-7.4l-8.9-8.9l8.9-8.8l-9-9H582l-0.1,12.7h-12.6V38L578.3,47z"/>
<path class="st0" d="M582,81.1h12.4l9-8.9l-8.9-8.9l8.9-8.8l-7.5-7.5l-8.8,8.9l-8.8-8.9l-9,9v12.4l12.6,0.1L582,81.1z M603.4,39.6
	l7.4,7.4l8.9-8.8l8.8,8.8l9-9V25.6h-12.7V12.9h-12.4l-9,9l8.8,8.8L603.4,39.6z M684.1,102.6l-8.9,8.8l-8.8-8.8l-7.5,7.4l8.9,8.8
	l-8.9,8.9l9,9l12.5-0.1V124H693v-12.5L684.1,102.6z M624.8,81.1v12.5l9,9l8.8-8.9l8.9,8.9l7.4-7.5l-8.8-8.9l8.8-8.8l-9-9h-12.4v12.7
	L624.8,81.1z M658.9,110l-7.4-7.4l-8.9,8.8l-8.8-8.8l-9,8.9V124h12.7v12.6l12.4,0.1l9-9l-8.8-8.9L658.9,110z M658.9,95.1l7.5,7.5
	l8.8-8.9l8.9,8.9l8.9-9V81.1h-12.6V68.4h-12.5l-9,9l8.9,8.8L658.9,95.1z M748.5,179.5l0.1-12.4l-9-9l-8.8,8.8l-8.9-8.8l-7.4,7.4
	l8.8,8.9l-8.8,8.8l8.9,9h12.5v-12.7H748.5z"/>
<path class="st0" d="M705.6,141.8l8.9-8.9l-9-8.9H693v12.6h-12.6l-0.1,12.5l9,9l8.9-8.9l8.8,8.9l7.5-7.5L705.6,141.8z M714.5,165.5
	l-7.5-7.4l-8.8,8.8l-8.9-8.8l-9,9l0.1,12.4H693v12.7h12.5l9-9l-8.9-8.8L714.5,165.5z M748.5,136.6h-12.6V124h-12.5l-8.9,8.9l8.8,8.9
	l-8.8,8.8l7.4,7.5l8.9-8.9l8.8,8.9l9-9L748.5,136.6z M795.1,213.6l-8.8,8.8l-8.9-8.8l-7.4,7.5l8.8,8.8l-8.8,8.9l9,8.9h12l0.1-13h13
	v-12.1L795.1,213.6z M761.2,197.3l8.8-8.8l-9-9h-12.5v12.6l-12.6,0.1v12.4l8.9,9l8.9-8.8l8.8,8.8l7.5-7.4L761.2,197.3z M770,221.1
	l-7.5-7.5l-8.8,8.8l-8.9-8.8l-8.9,9V235l12.6,0.1v12.6H761l9-8.9l-8.8-8.9L770,221.1z"/>
<path class="st0" d="M791.4,179.5H779l-9,9l8.8,8.8l-8.8,8.9l7.4,7.4l8.9-8.8l8.8,8.8l9-9v-12.4l-12.6-0.1L791.4,179.5z M675.2,0.3
	L674.9,0H660l7.8,7.8l-8.9,8.8l9,9h12.5V12.9H693V0.5L692.6,0h-17.1L675.2,0.3z M624.8,12.9h12.7v12.7h12.4l9-9l-8.8-8.8l7.8-7.8
	H643l-0.4,0.3L642.3,0h-17l-0.5,0.5V12.9z M723.3,63.3l-8.8,8.9l8.9,8.9h12.5V68.5l12.6-0.1l0.1-12.4l-9-9l-8.8,8.9l-8.9-8.9
	l-7.4,7.5L723.3,63.3z M689.3,47l8.9-8.8L707,47l7.5-7.4l-8.9-8.9l8.9-8.8l-9-9H693v12.7h-12.6L680.3,38L689.3,47z M693,81.1h12.5
	l9-8.9l-8.9-8.9l8.9-8.8L707,47l-8.8,8.9l-8.9-8.9l-9,9l0.1,12.4l12.6,0.1L693,81.1z"/>
<path class="st0" d="M714.5,39.6l7.4,7.4l8.9-8.8l8.8,8.8l9-9l-0.1-12.4h-12.6V12.9h-12.5l-8.9,9l8.8,8.8L714.5,39.6z M795.1,102.6
	l-8.8,8.8l-8.9-8.8L770,110l8.8,8.8l-8.8,8.9l9,9l12.4-0.1l0.1-12.6h12.6v-12.5L795.1,102.6z M735.9,81.1v12.5l8.9,9l8.9-8.9
	l8.8,8.9l7.5-7.5l-8.8-8.9l8.8-8.8l-9-9h-12.5v12.7L735.9,81.1z M770,110l-7.5-7.4l-8.8,8.8l-8.9-8.8l-8.9,8.9V124h12.6v12.6
	l12.5,0.1l9-9l-8.8-8.9L770,110z M770,95.1l7.4,7.5l8.9-8.9l8.8,8.9l9-9V81.1h-12.6l-0.1-12.7H779l-9,9l8.8,8.8L770,95.1z
	 M859.6,179.1v-12l-8.9-9l-8.9,8.8l-8.8-8.8l-7.5,7.4l8.9,8.9l-8.9,8.8l9,9h12.1v-13L859.6,179.1z"/>
<path class="st0" d="M816.7,141.8l8.8-8.9l-9-8.9h-12.4v12.6h-12.7v12.5l9,9l8.8-8.9l8.9,8.9l7.4-7.5L816.7,141.8z M825.5,165.5
	l-7.4-7.4l-8.9,8.8l-8.8-8.8l-9,9v12.4h12.7v12.7h12.4l9-9l-8.8-8.8L825.5,165.5z M859.6,136.6H847V124h-12.5l-9,8.9l8.9,8.9
	l-8.9,8.8l7.5,7.5l8.8-8.9l8.9,8.9l8.9-9L859.6,136.6z M786.3,0.3L786,0h-15l7.8,7.8l-8.8,8.8l9,9h12.4l0.1-12.7h12.6V0.5L803.6,0
	h-17L786.3,0.3z M735.9,12.9h12.6v12.7H761l9-9l-8.8-8.8l7.7-7.8H754l-0.3,0.3L753.4,0h-17.1l-0.4,0.5V12.9z M834.4,63.3l-8.9,8.9
	l9,8.9H847V68.5l12.6-0.1V56l-8.9-9l-8.9,8.9L833,47l-7.5,7.5L834.4,63.3z"/>
<path class="st0" d="M800.4,47l8.8-8.8l8.9,8.8l7.4-7.4l-8.8-8.9l8.8-8.8l-9-9h-12.4v12.7h-12.7V38L800.4,47z"/>
<path class="st0" d="M804.1,81.1h12.4l9-8.9l-8.8-8.9l8.8-8.8l-7.4-7.5l-8.9,8.9l-8.8-8.9l-9,9v12.4l12.7,0.1V81.1z M825.5,39.6
	L833,47l8.8-8.8l8.9,8.8l8.9-9V25.6H847V12.9h-12.5l-9,9l8.9,8.8L825.5,39.6z M906.2,102.6l-8.9,8.8l-8.8-8.8L881,110l8.9,8.8
	l-8.9,8.9l9,9l12.1-0.1v-13h13.1v-12.1L906.2,102.6z M847,81.1l-0.1,12.5l9,9l8.9-8.9l8.8,8.9l7.4-7.5l-8.8-8.9l8.8-8.8l-8.9-9
	h-12.5v12.7L847,81.1z M881,110l-7.4-7.4l-8.8,8.8l-8.9-8.8l-9,8.9L847,124h12.6v12.6l12.5,0.1l8.9-9l-8.8-8.9L881,110z M881,95.1
	l7.5,7.5l8.8-8.9l8.9,8.9l9-9V81.1h-12.7V68.4H890l-9,9l8.9,8.8L881,95.1z M897.3,0.3L897,0h-14.9l7.8,7.8l-8.9,8.8l9,9h12.5V12.9
	h12.7V0.5L914.7,0h-17L897.3,0.3z M847,12.9h12.6v12.7h12.5l8.9-9l-8.8-8.8L880,0h-14.9l-0.3,0.3L864.4,0h-17l-0.5,0.5L847,12.9z
	 M945.4,63.3l-8.8,8.9l9,8.9h12.1v-13h13V56l-9-9l-8.8,8.9L944,47l-7.4,7.5L945.4,63.3z"/>
<path class="st0" d="M911.5,47l8.8-8.8l8.8,8.8l7.5-7.4l-8.9-8.9l8.9-8.8l-9-9h-12.4l-0.1,12.7h-12.6V38L911.5,47z"/>
<path class="st0" d="M915.2,81.1h12.4l9-8.9l-8.9-8.9l8.9-8.8l-7.5-7.5l-8.8,8.9l-8.8-8.9l-9,9v12.4l12.6,0.1L915.2,81.1z
	 M936.6,39.6L944,47l8.9-8.8l8.8,8.8l9-9V25.6H958V12.9h-12.4l-9,9l8.8,8.8L936.6,39.6z M1008.4,0.3l-0.3-0.3h-14.9l7.8,7.8
	l-8.9,8.8l9,9h12.1v-13h13V0.5l-0.4-0.5h-17.1L1008.4,0.3z M958,12.9h12.7v12.7h12.4l9-9l-8.8-8.8L991,0h-14.9l-0.3,0.3L975.5,0h-17
	L958,0.5V12.9z M683.7,435.4l-8.9,8.8l-8.8-8.8l-7.4,7.4l7.1,7.2h27v-5.6L683.7,435.4z M649.7,419.1l8.9-8.9l-9-9l-12.1,0.1v13h-13
	l-0.1,12.1l9,9l8.9-8.9l8.8,8.9l7.5-7.5L649.7,419.1z"/>
<path class="st0" d="M651.1,435.4l-8.8,8.8l-8.9-8.8l-9,9l0.1,5.6h26.9l7.2-7.2L651.1,435.4z M680,401.3l-12.5-0.1l-8.9,9l8.8,8.9
	l-8.8,8.8l7.4,7.5l8.8-8.9l8.9,8.9l9-9v-12.5H680V401.3z M748.2,401.3v-12.5l-9-9l-8.8,8.9l-8.9-8.9l-7.4,7.5l8.8,8.8l-8.8,8.9l9,9
	l12.4-0.1v-12.6L748.2,401.3z M705.2,363.5l8.9-8.8l-9-9H693v13.1h-13v12.1l9,8.9l8.8-8.8l8.8,8.8l7.5-7.4L705.2,363.5z"/>
<path class="st0" d="M714.1,387.3l-7.5-7.5l-8.8,8.9l-8.8-8.9l-9,9v12.5h12.6l0.1,12.6l12.4,0.1l9-9l-8.9-8.9L714.1,387.3z
	 M748.2,358.4h-12.7v-12.7h-12.4l-9,9l8.8,8.8l-8.8,8.9l7.4,7.4l8.9-8.8l8.8,8.8l9-8.9V358.4z M794.8,435.4l-8.9,8.8l-8.8-8.8
	l-7.5,7.4l7.2,7.2h26.9l0.1-5.6L794.8,435.4z M760.8,419.1l8.8-8.9l-9-9l-12.4,0.1v12.6h-12.7v12.5l9,9l8.8-8.9l8.9,8.9l7.4-7.5
	L760.8,419.1z"/>
<path class="st0" d="M762.2,435.4l-8.9,8.8l-8.8-8.8l-9,9v5.6h27l7.1-7.2L762.2,435.4z M791.1,401.3l-12.5-0.1l-9,9l8.9,8.9
	l-8.9,8.8l7.5,7.5l8.8-8.9l8.9,8.9l9-9l-0.1-12.5h-12.6L791.1,401.3z M794.8,324.3l-8.9,8.8l-8.8-8.8l-7.5,7.5l8.9,8.8l-8.9,8.8l9,9
	h12.5v-12.6l12.6-0.1l0.1-12.4L794.8,324.3z M760.8,308l8.8-8.8l-9-9h-12.1v13h-13v12.1l9,9l8.8-8.8l8.9,8.8l7.4-7.4L760.8,308z"/>
<path class="st0" d="M769.6,331.8l-7.4-7.5l-8.9,8.8l-8.8-8.8l-9,9v12.4l12.7,0.1v12.6h12.4l9-9l-8.8-8.8L769.6,331.8z M791.1,290.2
	h-12.5l-9,9l8.9,8.8l-8.9,8.9l7.5,7.4l8.8-8.8l8.9,8.8l9-9l-0.1-12.4h-12.6L791.1,290.2z M859.2,401.3l0.1-12.5l-9-9l-8.8,8.9
	l-8.9-8.9l-7.4,7.5l8.8,8.8l-8.8,8.9l8.9,9l12.5-0.1v-12.6L859.2,401.3z M816.3,363.5l8.9-8.8l-9-9h-12.5v12.7h-12.6l-0.1,12.5
	l9,8.9l8.9-8.8l8.8,8.8l7.5-7.4L816.3,363.5z M825.2,387.3l-7.5-7.5l-8.8,8.9l-8.9-8.9l-9,9l0.1,12.5h12.6v12.6l12.5,0.1l9-9
	l-8.9-8.9L825.2,387.3z M859.2,358.4h-12.6v-12.7h-12.5l-8.9,9l8.8,8.8l-8.8,8.9l7.4,7.4l8.9-8.8l8.8,8.8l9-8.9L859.2,358.4z
	 M905.8,435.4l-8.8,8.8l-8.9-8.8l-7.4,7.4l7.2,7.2h26.9v-5.6L905.8,435.4z"/>
<path class="st0" d="M871.8,419.1l8.9-8.9l-9-9l-12.5,0.1v12.6h-12.6v12.5l8.9,9l8.9-8.9l8.8,8.9l7.5-7.5L871.8,419.1z"/>
<path class="st0" d="M873.2,435.4l-8.8,8.8l-8.9-8.8l-8.9,9v5.6h26.9l7.2-7.2L873.2,435.4z M902.1,401.3l-12.4-0.1l-9,9l8.8,8.9
	l-8.8,8.8l7.4,7.5l8.9-8.9l8.8,8.9l9-9v-12.5h-12.7V401.3z M859.2,290.2l0.1-12.4l-9-9l-8.8,8.8l-8.9-8.8l-7.4,7.4l8.8,8.9l-8.8,8.8
	l8.9,9h12.5v-12.7L859.2,290.2z M816.3,252.5l8.9-8.9l-9-9l-12.1,0.1v13H791v12.1l9,9l8.9-8.9l8.8,8.9l7.5-7.5L816.3,252.5z
	 M825.2,276.2l-7.5-7.4l-8.8,8.8l-8.9-8.8l-9,9l0.1,12.4h12.6v12.7h12.5l9-9l-8.9-8.8L825.2,276.2z M859.2,247.3h-12.6v-12.6
	l-12.5-0.1l-8.9,9l8.8,8.9l-8.8,8.8l7.4,7.5l8.9-8.9l8.8,8.9l9-9L859.2,247.3z M905.8,324.3l-8.8,8.8l-8.9-8.8l-7.4,7.5l8.8,8.8
	l-8.8,8.8l9,9h12.4v-12.6l12.7-0.1v-12.4L905.8,324.3z"/>
<path class="st0" d="M871.8,308l8.9-8.8l-9-9h-12.5v12.7h-12.6v12.4l8.9,9l8.9-8.8l8.8,8.8l7.5-7.4L871.8,308z M880.7,331.8
	l-7.5-7.5l-8.8,8.8l-8.9-8.8l-8.9,9v12.4l12.6,0.1v12.6h12.5l9-9l-8.9-8.8L880.7,331.8z M902.1,290.2h-12.4l-9,9l8.8,8.8l-8.8,8.9
	l7.4,7.4l8.9-8.8l8.8,8.8l9-9v-12.4h-12.7V290.2z M970.3,401.3v-12.5l-9-9l-8.8,8.9l-8.8-8.9l-7.5,7.5l8.9,8.8l-8.9,8.9l9,9
	l12.5-0.1v-12.6L970.3,401.3z M927.4,363.5l8.8-8.8l-9-9h-12.4v12.7h-12.7v12.5l9,8.9l8.8-8.8l8.9,8.8l7.4-7.4L927.4,363.5z"/>
<path class="st0" d="M936.2,387.3l-7.4-7.5l-8.9,8.9l-8.8-8.9l-9,9v12.5h12.7v12.6l12.4,0.1l9-9l-8.8-8.9L936.2,387.3z M970.3,358.4
	h-12.6v-12.7h-12.5l-9,9l8.9,8.8l-8.9,8.9l7.5,7.4l8.8-8.8l8.8,8.8l9-8.9V358.4z M1016.9,435.4l-8.9,8.8l-8.8-8.8l-7.4,7.4l7.1,7.2
	h27v-5.6L1016.9,435.4z M982.9,419.1l8.9-8.9l-9-9l-12.5,0.1v12.6h-12.6l-0.1,12.5l9,9l8.9-8.9l8.8,8.9l7.5-7.5L982.9,419.1z"/>
<path class="st0" d="M984.3,435.4l-8.8,8.8l-8.9-8.8l-9,9v5.6h27l7.2-7.2L984.3,435.4z M1013.2,401.3l-12.5-0.1l-8.9,9l8.8,8.9
	l-8.8,8.8l7.4,7.5l8.8-8.9l8.9,8.9l9-9l-0.1-12.5h-12.6L1013.2,401.3z M905.8,213.2l-8.8,8.9l-8.9-8.9l-7.4,7.5l8.8,8.8l-8.8,8.9
	l9,9l12.4-0.1v-12.6h12.7v-12.5L905.8,213.2z M871.8,196.9l8.9-8.8l-9-9h-12.1v13l-13,0.1v12.1l8.9,8.9l8.9-8.8l8.8,8.8l7.5-7.4
	L871.8,196.9z"/>
<path class="st0" d="M880.7,220.7l-7.5-7.5l-8.8,8.9l-8.9-8.9l-8.9,9v12.5h12.6v12.6l12.5,0.1l9-9l-8.9-8.9L880.7,220.7z
	 M902.1,179.1h-12.4l-9,9l8.8,8.8l-8.8,8.9l7.4,7.4l8.9-8.8l8.8,8.8l9-8.9v-12.5h-12.7V179.1z M970.3,290.2v-12.4l-9-9l-8.8,8.8
	l-8.8-8.8l-7.5,7.4l8.9,8.9l-8.9,8.8l9,9h12.5v-12.7L970.3,290.2z M927.4,252.5l8.8-8.9l-9-9l-12.4,0.1v12.6h-12.7v12.5l9,9l8.8-8.9
	l8.9,8.9l7.4-7.5L927.4,252.5z"/>
<path class="st0" d="M936.2,276.2l-7.4-7.4l-8.9,8.8l-8.8-8.8l-9,9v12.4h12.7v12.7h12.4l9-9l-8.8-8.8L936.2,276.2z M970.3,247.3
	h-12.6v-12.6l-12.5-0.1l-9,9l8.9,8.9l-8.9,8.8l7.5,7.5l8.8-8.9l8.8,8.9l9-9V247.3z M1016.9,324.3l-8.9,8.8l-8.8-8.8l-7.4,7.5
	l8.8,8.8l-8.8,8.8l8.9,9h12.5v-12.6l12.6-0.1l0.1-12.4L1016.9,324.3z M982.9,308l8.9-8.8l-9-9h-12.5v12.7h-12.6l-0.1,12.4l9,9
	l8.9-8.8l8.8,8.8l7.5-7.4L982.9,308z M991.8,331.8l-7.5-7.5l-8.8,8.8l-8.9-8.8l-9,9l0.1,12.4l12.6,0.1v12.6h12.5l9-9l-8.9-8.8
	L991.8,331.8z M1013.2,290.2h-12.5l-8.9,9l8.8,8.8l-8.8,8.9l7.4,7.4l8.8-8.8l8.9,8.8l9-9l-0.1-12.4h-12.6L1013.2,290.2z
	 M1081.4,401.3v-12.5l-9-9l-8.8,8.9l-8.9-8.9l-7.4,7.5l8.8,8.8l-8.8,8.9l9,9l12.4-0.1v-12.6L1081.4,401.3z M1038.4,363.5l8.9-8.8
	l-9-9h-12.5v12.7h-12.6v12.5l8.9,8.9l8.9-8.8l8.8,8.8l7.5-7.4L1038.4,363.5z M1047.3,387.3l-7.5-7.5l-8.8,8.9l-8.9-8.9l-8.9,9v12.5
	h12.6v12.6l12.5,0.1l9-9l-8.9-8.9L1047.3,387.3z"/>
<path class="st0" d="M1081.4,358.4h-12.7v-12.7h-12.4l-9,9l8.8,8.8l-8.8,8.9l7.4,7.4l8.9-8.8l8.8,8.8l9-8.9L1081.4,358.4z
	 M1127.9,435.4l-8.8,8.8l-8.8-8.8l-7.5,7.4l7.2,7.2h26.9v-5.6L1127.9,435.4z M1094,419.1l8.8-8.9l-9-9l-12.4,0.1l-0.1,12.6h-12.6
	v12.5l9,9l8.8-8.9l8.9,8.9l7.4-7.5L1094,419.1z"/>
<path class="st0" d="M1095.4,435.4l-8.9,8.8l-8.8-8.8l-9,9v5.6h26.9l7.2-7.2L1095.4,435.4z M1124.2,401.3l-12.4-0.1l-9,9l8.9,8.9
	l-8.9,8.8l7.5,7.5l8.8-8.9l8.8,8.9l9-9v-12.5h-12.6L1124.2,401.3z M970.3,179.1v-12.4l-9-9l-8.8,8.9l-8.8-8.9l-7.5,7.5l8.9,8.8
	l-8.9,8.9l9,8.9h12.5v-12.6L970.3,179.1z M927.4,141.4l8.8-8.8l-9-9h-12l-0.1,13h-13v12.1l9,9l8.8-8.8l8.9,8.8l7.4-7.4L927.4,141.4z
	"/>
<path class="st0" d="M936.2,165.2l-7.4-7.5l-8.9,8.9l-8.8-8.9l-9,9v12.4l12.7,0.1v12.6h12.4l9-8.9l-8.8-8.9L936.2,165.2z
	 M970.3,136.3h-12.6v-12.7h-12.5l-9,9l8.9,8.8l-8.9,8.9l7.5,7.4l8.8-8.8l8.8,8.8l9-9V136.3z M1016.9,213.2l-8.9,8.9l-8.8-8.9
	l-7.4,7.5l8.8,8.8l-8.8,8.9l8.9,9l12.5-0.1v-12.6h12.6l0.1-12.5L1016.9,213.2z M982.9,196.9l8.9-8.8l-9-9h-12.5v12.7h-12.6
	l-0.1,12.5l9,8.9l8.9-8.8l8.8,8.8l7.5-7.4L982.9,196.9z M991.8,220.7l-7.5-7.5l-8.8,8.9l-8.9-8.9l-9,9l0.1,12.5h12.6v12.6l12.5,0.1
	l9-9l-8.9-8.9L991.8,220.7z"/>
<path class="st0" d="M1013.2,179.1h-12.5l-8.9,9l8.8,8.8l-8.8,8.9l7.4,7.4l8.8-8.8l8.9,8.8l9-8.9l-0.1-12.5h-12.6L1013.2,179.1z
	 M1081.4,290.2v-12.4l-9-9l-8.8,8.8l-8.9-8.8l-7.4,7.4l8.8,8.9l-8.8,8.8l9,9h12.4v-12.7L1081.4,290.2z M1038.4,252.5l8.9-8.9l-9-9
	l-12.5,0.1v12.6h-12.6v12.5l8.9,9l8.9-8.9l8.8,8.9l7.5-7.5L1038.4,252.5z M1047.3,276.2l-7.5-7.4l-8.8,8.8l-8.9-8.8l-8.9,9v12.4
	h12.6v12.7h12.5l9-9l-8.9-8.8L1047.3,276.2z"/>
<path class="st0" d="M1081.4,247.3h-12.7v-12.6l-12.4-0.1l-9,9l8.8,8.9l-8.8,8.8l7.4,7.5l8.9-8.9l8.8,8.9l9-9L1081.4,247.3z
	 M1127.9,324.3l-8.8,8.8l-8.8-8.8l-7.5,7.5l8.9,8.8l-8.9,8.8l9,9h12.4l0.1-12.6l12.6-0.1v-12.4L1127.9,324.3z M1094,308l8.8-8.8
	l-9-9h-12.4l-0.1,12.7h-12.6v12.4l9,9l8.8-8.8l8.9,8.8l7.4-7.4L1094,308z M1102.8,331.8l-7.4-7.5l-8.9,8.8l-8.8-8.8l-9,9v12.4
	l12.6,0.1l0.1,12.6h12.4l9-9l-8.8-8.8L1102.8,331.8z"/>
<path class="st0" d="M1124.2,290.2h-12.4l-9,9l8.9,8.8l-8.9,8.9l7.5,7.4l8.8-8.8l8.8,8.8l9-9v-12.4h-12.6L1124.2,290.2z
	 M1192.4,401.3l0.1-12.5l-9-9l-8.9,8.9l-8.8-8.9l-7.5,7.5l8.9,8.8l-8.9,8.9l9,9l12.5-0.1v-12.6L1192.4,401.3z M1149.5,363.5l8.8-8.8
	l-8.9-9h-12.5v12.7h-12.7v12.5l9,8.9l8.9-8.8l8.8,8.8l7.4-7.4L1149.5,363.5z M1158.3,387.3l-7.4-7.5l-8.8,8.9l-8.9-8.9l-9,9v12.5
	h12.7v12.6l12.5,0.1l8.9-9l-8.8-8.9L1158.3,387.3z M1192.4,358.4h-12.6v-12.7h-12.5l-9,9l8.9,8.8l-8.9,8.9l7.5,7.4l8.8-8.8l8.9,8.8
	l9-8.9L1192.4,358.4z M1239,435.4l-8.8,8.8l-8.9-8.8l-7.4,7.4l7.2,7.2h26.9v-5.6L1239,435.4z M1205,419.1l8.9-8.9l-9-9l-12.5,0.1
	v12.6h-12.6v12.5l8.9,9l8.9-8.9l8.8,8.9l7.5-7.5L1205,419.1z"/>
<path class="st0" d="M1206.4,435.4l-8.8,8.8l-8.9-8.8l-8.9,9v5.6h26.9l7.2-7.2L1206.4,435.4z M1235.3,401.3l-12.4-0.1l-9,9l8.8,8.9
	l-8.8,8.8l7.4,7.5l8.9-8.9l8.8,8.9l9-9v-12.5h-12.7L1235.3,401.3z M1016.9,102.2l-8.9,8.8l-8.8-8.8l-7.4,7.4l8.8,8.9l-8.8,8.8l8.9,9
	h12.5v-12.7h12.6l0.1-12.4L1016.9,102.2z M957.7,81.1l-0.1,12.1l9,9l8.9-8.9l8.8,8.9l7.5-7.5l-8.9-8.8l8.9-8.8l-9-9h-12.1v13
	L957.7,81.1z M991.8,109.6l-7.5-7.4l-8.8,8.8l-8.9-8.8l-9,9l0.1,12.4h12.6v12.7h12.5l9-9l-8.9-8.8L991.8,109.6z"/>
<path class="st0" d="M991.8,94.7l7.4,7.5l8.8-8.9l8.9,8.9l9-9l-0.1-12.4l-12.6-0.1V68.1h-12.5l-8.9,9l8.8,8.8L991.8,94.7z
	 M1081.4,179.1v-12.4l-9-9l-8.8,8.9l-8.9-8.9l-7.4,7.5l8.8,8.8l-8.8,8.9l9,8.9h12.4v-12.6L1081.4,179.1z M1038.4,141.4l8.9-8.8l-9-9
	h-12.5v12.7h-12.6v12.4l8.9,9l8.9-8.8l8.8,8.8l7.5-7.4L1038.4,141.4z M1047.3,165.2l-7.5-7.5l-8.8,8.9l-8.9-8.9l-8.9,9v12.4
	l12.6,0.1v12.6h12.5l9-8.9l-8.9-8.9L1047.3,165.2z"/>
<path class="st0" d="M1081.4,136.3h-12.7v-12.7h-12.4l-9,9l8.8,8.8l-8.8,8.9l7.4,7.4l8.9-8.8l8.8,8.8l9-9L1081.4,136.3z
	 M1127.9,213.2l-8.8,8.9l-8.8-8.9l-7.5,7.5l8.9,8.8l-8.9,8.9l9,9l12.4-0.1l0.1-12.6h12.6v-12.5L1127.9,213.2z M1094,196.9l8.8-8.8
	l-9-9h-12.4l-0.1,12.7h-12.6v12.5l9,8.9l8.8-8.8l8.9,8.8l7.4-7.4L1094,196.9z M1102.8,220.7l-7.4-7.5l-8.9,8.9l-8.8-8.9l-9,9v12.5
	h12.6l0.1,12.6l12.4,0.1l9-9l-8.8-8.9L1102.8,220.7z"/>
<path class="st0" d="M1124.2,179.1h-12.4l-9,9l8.9,8.8l-8.9,8.9l7.5,7.4l8.8-8.8l8.8,8.8l9-8.9v-12.5h-12.6L1124.2,179.1z
	 M1192.4,290.2l0.1-12.4l-9-9l-8.9,8.8l-8.8-8.8l-7.5,7.4l8.9,8.9l-8.9,8.8l9,9h12.5v-12.7L1192.4,290.2z M1149.5,252.5l8.8-8.9
	l-8.9-9l-12.5,0.1v12.6h-12.7v12.5l9,9l8.9-8.9l8.8,8.9l7.4-7.5L1149.5,252.5z M1158.3,276.2l-7.4-7.4l-8.8,8.8l-8.9-8.8l-9,9v12.4
	h12.7v12.7h12.5l8.9-9l-8.8-8.8L1158.3,276.2z M1192.4,247.3h-12.6v-12.6l-12.5-0.1l-9,9l8.9,8.9l-8.9,8.8l7.5,7.5l8.8-8.9l8.9,8.9
	l9-9L1192.4,247.3z M1239,324.3l-8.8,8.8l-8.9-8.8l-7.4,7.5l8.8,8.8l-8.8,8.8l9,9h12.4v-12.6l12.7-0.1v-12.4L1239,324.3z M1205,308
	l8.9-8.8l-9-9h-12.5v12.7h-12.6v12.4l8.9,9l8.9-8.8l8.8,8.8l7.5-7.4L1205,308z"/>
<path class="st0" d="M1213.9,331.8l-7.5-7.5l-8.8,8.8l-8.9-8.8l-8.9,9v12.4l12.6,0.1v12.6h12.5l9-9l-8.9-8.8L1213.9,331.8z
	 M1235.3,290.2h-12.4l-9,9l8.8,8.8l-8.8,8.9l7.4,7.4l8.9-8.8l8.8,8.8l9-9v-12.4h-12.7L1235.3,290.2z M1303.5,401.3v-12.5l-9-9
	l-8.8,8.9l-8.8-8.9l-7.5,7.5l8.8,8.8l-8.8,8.9l9,9l12.4-0.1l0.1-12.6L1303.5,401.3z M1260.6,363.5l8.8-8.8l-9-9H1248l-0.1,12.7
	h-12.6v12.5l9,8.9l8.8-8.8l8.8,8.8l7.5-7.4L1260.6,363.5z M1269.4,387.3l-7.5-7.5l-8.8,8.9l-8.8-8.9l-9,9v12.5h12.6l0.1,12.6
	l12.4,0.1l9-9l-8.8-8.9L1269.4,387.3z M1303.5,358.4h-12.6l-0.1-12.7h-12.4l-9,9l8.8,8.8l-8.8,8.9l7.5,7.4l8.8-8.8l8.8,8.8l9-8.9
	L1303.5,358.4z M1350.1,435.4l-8.9,8.8l-8.8-8.8l-7.5,7.4l7.2,7.2h27v-5.6L1350.1,435.4z"/>
<path class="st0" d="M1316.1,419.1l8.8-8.9l-9-9l-12.4,0.1v12.6h-12.7v12.5l9,9l8.8-8.9l8.9,8.9l7.4-7.5L1316.1,419.1z"/>
<path class="st0" d="M1317.5,435.4l-8.9,8.8l-8.8-8.8l-9,9v5.6h27l7.1-7.2L1317.5,435.4z M1346.4,401.3l-12.5-0.1l-9,9l8.9,8.9
	l-8.9,8.8l7.5,7.5l8.8-8.9l8.9,8.9l9-9l-0.1-12.5h-12.6L1346.4,401.3z M1056.1,63l-8.8,8.8l9,9h12.4V68.1h12.7V55.6l-9-8.9l-8.8,8.8
	l-8.9-8.8l-7.4,7.4L1056.1,63z M1022.1,46.7l8.9-8.9l8.8,8.9l7.5-7.5l-8.9-8.8l8.9-8.9l-9-9l-12.1,0.1v13h-13v12.1L1022.1,46.7z
	 M1025.8,80.8h12.5l9-9l-8.9-8.8l8.9-8.9l-7.5-7.4l-8.8,8.8l-8.9-8.8l-8.9,8.9v12.5h12.6L1025.8,80.8z M1047.3,39.2l7.4,7.5l8.9-8.9
	l8.8,8.9l9-9V25.2h-12.7V12.6l-12.4-0.1l-9,9l8.8,8.9L1047.3,39.2z M1127.9,102.2l-8.8,8.8l-8.8-8.8l-7.5,7.4l8.9,8.9l-8.9,8.8l9,9
	h12.4l0.1-12.7h12.6v-12.4L1127.9,102.2z M1068.7,80.8v12.4l9,9l8.8-8.9l8.9,8.9l7.4-7.5l-8.8-8.8l8.8-8.8l-9-9h-12.4l-0.1,12.6
	L1068.7,80.8z"/>
<path class="st0" d="M1102.8,109.6l-7.4-7.4l-8.9,8.8l-8.8-8.8l-9,9v12.4h12.6l0.1,12.7h12.4l9-9l-8.8-8.8L1102.8,109.6z
	 M1102.8,94.7l7.5,7.5l8.8-8.9l8.8,8.9l9-9V80.8l-12.6-0.1l-0.1-12.6h-12.4l-9,9l8.9,8.8L1102.8,94.7z M1192.4,179.1l0.1-12.4l-9-9
	l-8.9,8.9l-8.8-8.9l-7.5,7.5l8.9,8.8l-8.9,8.9l9,8.9h12.5v-12.6L1192.4,179.1z M1149.5,141.4l8.8-8.8l-8.9-9h-12.5v12.7h-12.7v12.4
	l9,9l8.9-8.8l8.8,8.8l7.4-7.4L1149.5,141.4z M1158.3,165.2l-7.4-7.5l-8.8,8.9l-8.9-8.9l-9,9v12.4l12.7,0.1v12.6h12.5l8.9-8.9
	l-8.8-8.9L1158.3,165.2z"/>
<path class="st0" d="M1192.4,136.3h-12.6v-12.7h-12.5l-9,9l8.9,8.8l-8.9,8.9l7.5,7.4l8.8-8.8l8.9,8.8l9-9L1192.4,136.3z M1239,213.2
	l-8.8,8.9l-8.9-8.9l-7.4,7.5l8.8,8.8l-8.8,8.9l9,9l12.4-0.1v-12.6h12.7v-12.5L1239,213.2z M1205,196.9l8.9-8.8l-9-9h-12.5v12.7
	h-12.6v12.5l8.9,8.9l8.9-8.8l8.8,8.8l7.5-7.4L1205,196.9z"/>
<path class="st0" d="M1213.9,220.7l-7.5-7.5l-8.8,8.9l-8.9-8.9l-8.9,9v12.5h12.6v12.6l12.5,0.1l9-9l-8.9-8.9L1213.9,220.7z
	 M1235.3,179.1h-12.4l-9,9l8.8,8.8l-8.8,8.9l7.4,7.4l8.9-8.8l8.8,8.8l9-8.9v-12.5h-12.7L1235.3,179.1z M1303.5,290.2v-12.4l-9-9
	l-8.8,8.8l-8.8-8.8l-7.5,7.4l8.8,8.9l-8.8,8.8l9,9h12.4l0.1-12.7L1303.5,290.2z M1260.6,252.5l8.8-8.9l-9-9l-12.4,0.1l-0.1,12.6
	h-12.6v12.5l9,9l8.8-8.9l8.8,8.9l7.5-7.5L1260.6,252.5z M1269.4,276.2l-7.5-7.4l-8.8,8.8l-8.8-8.8l-9,9v12.4h12.6l0.1,12.7h12.4l9-9
	l-8.8-8.8L1269.4,276.2z M1303.5,247.3h-12.6l-0.1-12.6l-12.4-0.1l-9,9l8.8,8.9l-8.8,8.8l7.5,7.5l8.8-8.9l8.8,8.9l9-9L1303.5,247.3z
	 M1350.1,324.3l-8.9,8.8l-8.8-8.8l-7.5,7.5l8.9,8.8l-8.9,8.8l9,9h12.5v-12.6l12.6-0.1l0.1-12.4L1350.1,324.3z"/>
<path class="st0" d="M1316.1,308l8.8-8.8l-9-9h-12.4v12.7h-12.7v12.4l9,9l8.8-8.8l8.9,8.8l7.4-7.4L1316.1,308z M1324.9,331.8
	l-7.4-7.5l-8.9,8.8l-8.8-8.8l-9,9v12.4l12.7,0.1v12.6h12.4l9-9l-8.8-8.8L1324.9,331.8z M1346.4,290.2h-12.5l-9,9l8.9,8.8l-8.9,8.9
	l7.5,7.4l8.8-8.8l8.9,8.8l9-9l-0.1-12.4h-12.6L1346.4,290.2z M1414.6,401.3v-12.5l-9-9l-8.8,8.9l-8.9-8.9l-7.4,7.5l8.8,8.8l-8.8,8.9
	l9,9l12.4-0.1v-12.6L1414.6,401.3z M1371.6,363.5l8.9-8.8l-9-9H1359v12.7h-12.6l-0.1,12.5l9,8.9l8.9-8.8l8.8,8.8l7.5-7.4
	L1371.6,363.5z"/>
<path class="st0" d="M1380.5,387.3l-7.5-7.5l-8.8,8.9l-8.9-8.9l-9,9l0.1,12.5h12.6v12.6l12.5,0.1l9-9l-8.9-8.9L1380.5,387.3z
	 M1414.6,358.4h-12.7v-12.7h-12.4l-9,9l8.8,8.8l-8.8,8.9l7.4,7.4l8.9-8.8l8.8,8.8l9-8.9L1414.6,358.4z M1461.1,435.4l-8.8,8.8
	l-8.8-8.8l-7.5,7.4l7.2,7.2h26.9v-5.6L1461.1,435.4z M1427.2,419.1l8.8-8.9l-9-9l-12.4,0.1l-0.1,12.6h-12.6v12.5l9,9l8.8-8.9
	l8.9,8.9l7.4-7.5L1427.2,419.1z"/>
<path class="st0" d="M1428.6,435.4l-8.9,8.8l-8.8-8.8l-9,9v5.6h26.9l7.2-7.2L1428.6,435.4z M1457.4,401.3l-12.4-0.1l-9,9l8.8,8.9
	l-8.8,8.8l7.5,7.5l8.8-8.9l8.8,8.9l9-9v-12.5h-12.6L1457.4,401.3z M1111.7,7.4l-8.9,8.9l9,8.9h12.4l0.1-12.6h12.6V0.1l-0.1-0.1
	h-32.6L1111.7,7.4z M1068.7,12.6h12.6l0.1,12.6h12.4l9-8.9l-8.8-8.9l7.4-7.4h-32.6l-0.1,0.1V12.6z M1167.2,63l-8.9,8.8l9,9h12.5
	V68.1h12.6l0.1-12.5l-9-8.9l-8.9,8.8l-8.8-8.8l-7.5,7.4L1167.2,63z"/>
<path class="st0" d="M1133.2,46.7l8.9-8.9l8.8,8.9l7.4-7.5l-8.8-8.8l8.8-8.9l-8.9-9l-12.5,0.1v12.6h-12.7v12.5L1133.2,46.7z
	 M1136.9,80.8h12.5l8.9-9l-8.8-8.8l8.8-8.9l-7.4-7.4l-8.8,8.8l-8.9-8.8l-9,8.9v12.5h12.7L1136.9,80.8z"/>
<path class="st0" d="M1158.3,39.2l7.5,7.5l8.8-8.9l8.9,8.9l9-9l-0.1-12.5h-12.6V12.6l-12.5-0.1l-9,9l8.9,8.9L1158.3,39.2z
	 M1239,102.2l-8.8,8.8l-8.9-8.8l-7.4,7.4l8.8,8.9l-8.8,8.8l9,9h12.4v-12.7h12.7v-12.4L1239,102.2z M1179.8,80.8v12.4l8.9,9l8.9-8.9
	l8.8,8.9l7.5-7.5l-8.9-8.8l8.9-8.8l-9-9h-12.5v12.6L1179.8,80.8z"/>
<path class="st0" d="M1213.9,109.6l-7.5-7.4l-8.8,8.8l-8.9-8.8l-8.9,9v12.4h12.6v12.7h12.5l9-9l-8.9-8.8L1213.9,109.6z M1213.9,94.7
	l7.4,7.5l8.9-8.9l8.8,8.9l9-9V80.8l-12.7-0.1V68.1h-12.4l-9,9l8.8,8.8L1213.9,94.7z M1303.5,179.1v-12.4l-9-9l-8.8,8.9l-8.8-8.9
	l-7.5,7.5l8.8,8.8l-8.8,8.9l9,8.9h12.4l0.1-12.6L1303.5,179.1z M1260.6,141.4l8.8-8.8l-9-9H1248l-0.1,12.7h-12.6v12.4l9,9l8.8-8.8
	l8.8,8.8l7.5-7.4L1260.6,141.4z M1269.4,165.2l-7.5-7.5l-8.8,8.9l-8.8-8.9l-9,9v12.4l12.6,0.1l0.1,12.6h12.4l9-8.9l-8.8-8.9
	L1269.4,165.2z"/>
<path class="st0" d="M1303.5,136.3h-12.6l-0.1-12.7h-12.4l-9,9l8.8,8.8l-8.8,8.9l7.5,7.4l8.8-8.8l8.8,8.8l9-9L1303.5,136.3z
	 M1350.1,213.2l-8.9,8.9l-8.8-8.9l-7.5,7.5l8.9,8.8l-8.9,8.9l9,9l12.5-0.1v-12.6h12.6l0.1-12.5L1350.1,213.2z M1316.1,196.9l8.8-8.8
	l-9-9h-12.4v12.7h-12.7v12.5l9,8.9l8.8-8.8l8.9,8.8l7.4-7.4L1316.1,196.9z"/>
<path class="st0" d="M1324.9,220.7l-7.4-7.5l-8.9,8.9l-8.8-8.9l-9,9v12.5h12.7v12.6l12.4,0.1l9-9l-8.8-8.9L1324.9,220.7z
	 M1346.4,179.1h-12.5l-9,9l8.9,8.8l-8.9,8.9l7.5,7.4l8.8-8.8l8.9,8.8l9-8.9l-0.1-12.5h-12.6L1346.4,179.1z M1414.6,290.2v-12.4l-9-9
	l-8.8,8.8l-8.9-8.8l-7.4,7.4l8.8,8.9l-8.8,8.8l9,9h12.4v-12.7L1414.6,290.2z M1371.6,252.5l8.9-8.9l-9-9l-12.5,0.1v12.6h-12.6
	l-0.1,12.5l9,9l8.9-8.9l8.8,8.9l7.5-7.5L1371.6,252.5z"/>
<path class="st0" d="M1380.5,276.2l-7.5-7.4l-8.8,8.8l-8.9-8.8l-9,9l0.1,12.4h12.6v12.7h12.5l9-9l-8.9-8.8L1380.5,276.2z
	 M1414.6,247.3h-12.7v-12.6l-12.4-0.1l-9,9l8.8,8.9l-8.8,8.8l7.4,7.5l8.9-8.9l8.8,8.9l9-9L1414.6,247.3z M1461.1,324.3l-8.8,8.8
	l-8.8-8.8l-7.5,7.5l8.8,8.8l-8.8,8.8l9,9h12.4l0.1-12.6l12.6-0.1v-12.4L1461.1,324.3z M1427.2,308l8.8-8.8l-9-9h-12.4l-0.1,12.7
	h-12.6v12.4l9,9l8.8-8.8l8.9,8.8l7.4-7.4L1427.2,308z M1436,331.8l-7.4-7.5l-8.9,8.8l-8.8-8.8l-9,9v12.4l12.6,0.1l0.1,12.6h12.4l9-9
	l-8.8-8.8L1436,331.8z"/>
<path class="st0" d="M1457.4,290.2H1445l-9,9l8.8,8.8l-8.8,8.9l7.5,7.4l8.8-8.8l8.8,8.8l9-9v-12.4h-12.6L1457.4,290.2z
	 M1525.6,401.3l0.1-12.5l-9-9l-8.9,8.9l-8.8-8.9l-7.5,7.5l8.9,8.8l-8.9,8.9l9,9l12.5-0.1v-12.6L1525.6,401.3z M1482.7,363.5l8.8-8.8
	l-8.9-9h-12.5v12.7h-12.7v12.5l9,8.9l8.8-8.8l8.9,8.8l7.4-7.4L1482.7,363.5z"/>
<path class="st0" d="M1491.5,387.3l-7.4-7.5l-8.9,8.9l-8.8-8.9l-9,9v12.5h12.7v12.6l12.5,0.1l8.9-9l-8.8-8.9L1491.5,387.3z
	 M1525.6,358.4H1513v-12.7h-12.5l-9,9l8.9,8.8l-8.9,8.9l7.5,7.4l8.8-8.8l8.9,8.8l9-8.9L1525.6,358.4z M1572.2,435.4l-8.8,8.8
	l-8.9-8.8l-7.4,7.4l7.1,7.2h27v-5.6L1572.2,435.4z M1538.2,419.1l8.9-8.9l-9-9l-12.5,0.1v12.6H1513l-0.1,12.5l9,9l8.9-8.9l8.8,8.9
	l7.5-7.5L1538.2,419.1z"/>
<path class="st0" d="M1539.6,435.4l-8.8,8.8l-8.9-8.8l-9,9v5.6h27l7.2-7.2L1539.6,435.4z M1568.5,401.3l-12.4-0.1l-9,9l8.8,8.9
	l-8.8,8.8l7.4,7.5l8.9-8.9l8.8,8.9l9-9v-12.5h-12.7L1568.5,401.3z M1222.7,7.4l-8.8,8.9l9,8.9h12.4V12.6h12.7V0.1l-0.1-0.1h-32.6
	L1222.7,7.4z M1179.8,12.6h12.6v12.6h12.5l9-8.9l-8.9-8.9l7.4-7.4h-32.5l-0.1,0.1V12.6z M1278.2,63l-8.8,8.8l9,9h12.4l0.1-12.7h12.6
	V55.6l-9-8.9l-8.8,8.8l-8.8-8.8l-7.5,7.4L1278.2,63z"/>
<path class="st0" d="M1244.3,46.7l8.8-8.9l8.8,8.9l7.5-7.5l-8.8-8.8l8.8-8.9l-9-9l-12.4,0.1l-0.1,12.6h-12.6v12.5L1244.3,46.7z
	 M1248,80.8h12.4l9-9l-8.8-8.8l8.8-8.9l-7.5-7.4l-8.8,8.8l-8.8-8.8l-9,8.9v12.5h12.6L1248,80.8z M1269.4,39.2l7.5,7.5l8.8-8.9
	l8.8,8.9l9-9V25.2h-12.6l-0.1-12.6l-12.4-0.1l-9,9l8.8,8.9L1269.4,39.2z M1350.1,102.2l-8.9,8.8l-8.8-8.8l-7.5,7.4l8.9,8.9l-8.9,8.8
	l9,9h12.5v-12.7h12.6l0.1-12.4L1350.1,102.2z M1290.8,80.8v12.4l9,9l8.8-8.9l8.9,8.9l7.4-7.5l-8.8-8.8l8.8-8.8l-9-9h-12.4v12.6
	L1290.8,80.8z"/>
<path class="st0" d="M1324.9,109.6l-7.4-7.4l-8.9,8.8l-8.8-8.8l-9,9v12.4h12.7v12.7h12.4l9-9l-8.8-8.8L1324.9,109.6z M1324.9,94.7
	l7.5,7.5l8.8-8.9l8.9,8.9l9-9l-0.1-12.4l-12.6-0.1V68.1h-12.5l-9,9l8.9,8.8L1324.9,94.7z M1414.6,179.1v-12.4l-9-9l-8.8,8.9
	l-8.9-8.9l-7.4,7.5l8.8,8.8l-8.8,8.9l9,8.9h12.4v-12.6L1414.6,179.1z M1371.6,141.4l8.9-8.8l-9-9H1359v12.7h-12.6l-0.1,12.4l9,9
	l8.9-8.8l8.8,8.8l7.5-7.4L1371.6,141.4z"/>
<path class="st0" d="M1380.5,165.2l-7.5-7.5l-8.8,8.9l-8.9-8.9l-9,9l0.1,12.4l12.6,0.1v12.6h12.5l9-8.9l-8.9-8.9L1380.5,165.2z
	 M1414.6,136.3h-12.7v-12.7h-12.4l-9,9l8.8,8.8l-8.8,8.9l7.4,7.4l8.9-8.8l8.8,8.8l9-9L1414.6,136.3z M1461.1,213.2l-8.8,8.9
	l-8.8-8.9l-7.5,7.5l8.8,8.8l-8.8,8.9l9,9l12.4-0.1l0.1-12.6h12.6v-12.5L1461.1,213.2z M1427.2,196.9l8.8-8.8l-9-9h-12.4l-0.1,12.7
	h-12.6v12.5l9,8.9l8.8-8.8l8.9,8.8l7.4-7.4L1427.2,196.9z M1436,220.7l-7.4-7.5l-8.9,8.9l-8.8-8.9l-9,9v12.5h12.6l0.1,12.6l12.4,0.1
	l9-9l-8.8-8.9L1436,220.7z"/>
<path class="st0" d="M1457.4,179.1H1445l-9,9l8.8,8.8l-8.8,8.9l7.5,7.4l8.8-8.8l8.8,8.8l9-8.9v-12.5h-12.6L1457.4,179.1z
	 M1525.6,290.2l0.1-12.4l-9-9l-8.9,8.8l-8.8-8.8l-7.5,7.4l8.9,8.9l-8.9,8.8l9,9h12.5v-12.7L1525.6,290.2z M1482.7,252.5l8.8-8.9
	l-8.9-9l-12.5,0.1v12.6h-12.7v12.5l9,9l8.8-8.9l8.9,8.9l7.4-7.5L1482.7,252.5z"/>
<path class="st0" d="M1491.5,276.2l-7.4-7.4l-8.9,8.8l-8.8-8.8l-9,9v12.4h12.7v12.7h12.5l8.9-9l-8.8-8.8L1491.5,276.2z
	 M1525.6,247.3H1513v-12.6l-12.5-0.1l-9,9l8.9,8.9l-8.9,8.8l7.5,7.5l8.8-8.9l8.9,8.9l9-9L1525.6,247.3z M1572.2,324.3l-8.8,8.8
	l-8.9-8.8l-7.4,7.5l8.8,8.8l-8.8,8.8l9,9h12.4v-12.6l12.7-0.1v-12.4L1572.2,324.3z M1538.2,308l8.9-8.8l-9-9h-12.5v12.7H1513
	l-0.1,12.4l9,9l8.9-8.8l8.8,8.8l7.5-7.4L1538.2,308z M1547.1,331.8l-7.5-7.5l-8.8,8.8l-8.9-8.8l-9,9l0.1,12.4l12.6,0.1v12.6h12.5
	l9-9l-8.9-8.8L1547.1,331.8z"/>
<path class="st0" d="M1568.5,290.2h-12.4l-9,9l8.8,8.8l-8.8,8.9l7.4,7.4l8.9-8.8l8.8,8.8l9-9v-12.4h-12.7L1568.5,290.2z
	 M1636.7,401.3v-12.5l-9-9l-8.8,8.9l-8.8-8.9l-7.5,7.5l8.8,8.8l-8.8,8.9l9,9l12.4-0.1l0.1-12.6L1636.7,401.3z M1593.8,363.5l8.8-8.8
	l-9-9h-12.4l-0.1,12.7h-12.6v12.5l9,8.9l8.8-8.8l8.8,8.8l7.5-7.4L1593.8,363.5z M1602.6,387.3l-7.5-7.5l-8.8,8.9l-8.8-8.9l-9,9v12.5
	h12.6l0.1,12.6l12.4,0.1l9-9l-8.8-8.9L1602.6,387.3z M1636.7,358.4h-12.6l-0.1-12.7h-12.4l-9,9l8.8,8.8l-8.8,8.9l7.5,7.4l8.8-8.8
	l8.8,8.8l9-8.9L1636.7,358.4z M1683.3,435.4l-8.9,8.8l-8.8-8.8l-7.5,7.4l7.2,7.2h26.9v-5.6L1683.3,435.4z"/>
<path class="st0" d="M1649.3,419.1l8.8-8.9l-9-9l-12.4,0.1v12.6H1624v12.5l9,9l8.8-8.9l8.9,8.9l7.4-7.5L1649.3,419.1z"/>
<path class="st0" d="M1650.7,435.4l-8.9,8.8l-8.8-8.8l-9,9v5.6h26.9l7.2-7.2L1650.7,435.4z M1679.6,401.3l-12.5-0.1l-9,9l8.9,8.9
	l-8.9,8.8l7.5,7.5l8.8-8.9l8.9,8.9l8.9-9v-12.5h-12.6L1679.6,401.3z M1333.8,7.4l-8.9,8.9l9,8.9h12.5V12.6h12.6l0.1-12.5l-0.2-0.1
	h-32.5L1333.8,7.4z"/>
<path class="st0" d="M1290.8,12.6h12.7v12.6h12.4l9-8.9l-8.8-8.9l7.4-7.4h-32.6l-0.1,0.1V12.6z M1389.3,63l-8.8,8.8l9,9h12.4V68.1
	h12.7V55.6l-9-8.9l-8.8,8.8l-8.9-8.8l-7.4,7.4L1389.3,63z M1355.3,46.7l8.9-8.9l8.8,8.9l7.5-7.5l-8.9-8.8l8.9-8.9l-9-9l-12.5,0.1
	v12.6h-12.6l-0.1,12.5L1355.3,46.7z M1359,80.8h12.5l9-9l-8.9-8.8l8.9-8.9l-7.5-7.4l-8.8,8.8l-8.9-8.8l-9,8.9l0.1,12.5h12.6
	L1359,80.8z M1380.5,39.2l7.4,7.5l8.9-8.9l8.8,8.9l9-9V25.2h-12.7V12.6l-12.4-0.1l-9,9l8.8,8.9L1380.5,39.2z M1443.5,102.2l-7.5,7.4
	l8.8,8.9l-8.8,8.8l9,9h12.4l0.1-12.7h12.6v-12.4l-9-9l-8.8,8.8L1443.5,102.2z M1401.9,80.8v12.4l9,9l8.8-8.9l8.9,8.9l7.4-7.5
	l-8.8-8.8l8.8-8.8l-9-9h-12.4l-0.1,12.6L1401.9,80.8z"/>
<path class="st0" d="M1436,109.6l-7.4-7.4l-8.9,8.8l-8.8-8.8l-9,9v12.4h12.6l0.1,12.7h12.4l9-9l-8.8-8.8L1436,109.6z M1436,94.7
	l7.5,7.5l8.8-8.9l8.8,8.9l9-9V80.8l-12.6-0.1l-0.1-12.6H1445l-9,9l8.8,8.8L1436,94.7z M1499,157.7l-7.5,7.5l8.9,8.8l-8.9,8.9l9,8.9
	h12.5v-12.6l12.6-0.1l0.1-12.4l-9-9l-8.9,8.9L1499,157.7z M1470.1,123.6v12.7h-12.7v12.4l9,9l8.8-8.8l8.9,8.8l7.4-7.4l-8.8-8.9
	l8.8-8.8l-8.9-9L1470.1,123.6z M1491.5,165.2l-7.4-7.5l-8.9,8.9l-8.8-8.9l-9,9v12.4l12.7,0.1v12.6h12.5l8.9-8.9l-8.8-8.9
	L1491.5,165.2z"/>
<path class="st0" d="M1513,123.6h-12.5l-9,9l8.9,8.8l-8.9,8.9l7.5,7.4l8.8-8.8l8.9,8.8l9-9l-0.1-12.4H1513V123.6z M1554.5,213.2
	l-7.4,7.5l8.8,8.8l-8.8,8.9l9,9l12.4-0.1v-12.6h12.7v-12.5l-9-9l-8.8,8.9L1554.5,213.2z M1513,191.8l-0.1,12.5l9,8.9l8.9-8.8
	l8.8,8.8l7.5-7.4l-8.9-8.9l8.9-8.8l-9-9h-12.5v12.7H1513z"/>
<path class="st0" d="M1547.1,220.7l-7.5-7.5l-8.8,8.9l-8.9-8.9l-9,9l0.1,12.5h12.6v12.6l12.5,0.1l9-9l-8.9-8.9L1547.1,220.7z
	 M1547.1,188.1l8.8,8.8l-8.8,8.9l7.4,7.4l8.9-8.8l8.8,8.8l9-8.9v-12.5h-12.7v-12.7h-12.4L1547.1,188.1z M1610.1,268.8l-7.5,7.4
	l8.8,8.9l-8.8,8.8l9,9h12.4l0.1-12.7h12.6v-12.4l-9-9l-8.8,8.8L1610.1,268.8z M1581.2,234.7l-0.1,12.6h-12.6v12.5l9,9l8.8-8.9
	l8.8,8.9l7.5-7.5l-8.8-8.8l8.8-8.9l-9-9L1581.2,234.7z M1602.6,276.2l-7.5-7.4l-8.8,8.8l-8.8-8.8l-9,9v12.4h12.6l0.1,12.7h12.4l9-9
	l-8.8-8.8L1602.6,276.2z"/>
<path class="st0" d="M1624,234.7l-12.4-0.1l-9,9l8.8,8.9l-8.8,8.8l7.5,7.5l8.8-8.9l8.8,8.9l9-9v-12.5h-12.6L1624,234.7z
	 M1665.6,324.3l-7.5,7.5l8.9,8.8l-8.9,8.8l9,9h12.5v-12.6l12.6-0.1v-12.4l-8.9-9l-8.9,8.8L1665.6,324.3z M1624,302.9v12.4l9,9
	l8.8-8.8l8.9,8.8l7.4-7.4l-8.8-8.9l8.8-8.8l-9-9h-12.4v12.7L1624,302.9z M1658.1,331.8l-7.4-7.5l-8.9,8.8l-8.8-8.8l-9,9v12.4
	l12.7,0.1v12.6h12.4l9-9l-8.8-8.8L1658.1,331.8z"/>
<path class="st0" d="M1658.1,299.2l8.9,8.8l-8.9,8.9l7.5,7.4l8.8-8.8l8.9,8.8l8.9-9v-12.4h-12.6v-12.7h-12.5L1658.1,299.2z
	 M1721.1,379.8l-7.4,7.5l8.8,8.8l-8.8,8.9l9,9l12.4-0.1v-12.6h12.7v-12.5l-9-9l-8.9,8.9L1721.1,379.8z M1692.2,345.7v12.7h-12.6
	l-0.1,12.5l9,8.9l8.9-8.8l8.8,8.8l7.5-7.4l-8.9-8.9l8.9-8.8l-9-9L1692.2,345.7z"/>
<path class="st0" d="M1713.7,387.3l-7.5-7.5l-8.8,8.9l-8.9-8.9l-9,9l0.1,12.5h12.6v12.6l12.5,0.1l9-9l-8.9-8.9L1713.7,387.3z
	 M1735.1,345.7h-12.4l-9,9l8.8,8.8l-8.8,8.9l7.4,7.4l8.8-8.8l8.9,8.8l9-8.9v-12.5h-12.7L1735.1,345.7z M1776.6,435.4l-7.4,7.4
	l7.2,7.2h26.9v-5.6l-9-9l-8.8,8.8L1776.6,435.4z M1747.8,401.3l-0.1,12.6h-12.6v12.5l9,9l8.8-8.9l8.8,8.9l7.5-7.5l-8.9-8.8l8.9-8.9
	l-9-9L1747.8,401.3z"/>
<path class="st0" d="M1752.9,444.2l-8.8-8.8l-9,9v5.6h26.9l7.2-7.2l-7.5-7.4L1752.9,444.2z M1790.6,401.3l-12.4-0.1l-9,9l8.8,8.9
	l-8.8,8.8l7.4,7.5l8.9-8.9l8.8,8.9l9-9v-12.5h-12.6L1790.6,401.3z M1444.8,7.4l-8.8,8.9l9,8.9h12.4l0.1-12.6h12.6V0.1L1470,0h-32.6
	L1444.8,7.4z M1401.9,12.6h12.6l0.1,12.6h12.4l9-8.9l-8.8-8.9l7.4-7.4H1402l-0.1,0.1V12.6z M1499,46.7l-7.5,7.4l8.9,8.9l-8.9,8.8
	l9,9h12.5V68.1h12.6l0.1-12.5l-9-8.9l-8.9,8.8L1499,46.7z M1466.4,46.7l8.8-8.9l8.9,8.9l7.4-7.5l-8.8-8.8l8.8-8.9l-8.9-9l-12.5,0.1
	v12.6h-12.7v12.5L1466.4,46.7z"/>
<path class="st0" d="M1475.2,55.5l-8.8-8.8l-9,8.9v12.5h12.7v12.7h12.5l8.9-9l-8.8-8.8l8.8-8.9l-7.4-7.4L1475.2,55.5z M1491.5,21.5
	l8.9,8.9l-8.9,8.8l7.5,7.5l8.8-8.9l8.9,8.9l9-9l-0.1-12.5H1513V12.6l-12.5-0.1L1491.5,21.5z M1554.5,102.2l-7.4,7.4l8.8,8.9
	l-8.8,8.8l9,9h12.4v-12.7h12.7v-12.4l-9-9l-8.8,8.8L1554.5,102.2z M1513,80.8l-0.1,12.4l9,9l8.9-8.9l8.8,8.9l7.5-7.5l-8.9-8.8
	l8.9-8.8l-9-9h-12.5v12.6L1513,80.8z M1530.8,111l-8.9-8.8l-9,9l0.1,12.4h12.6v12.7h12.5l9-9l-8.9-8.8l8.9-8.9l-7.5-7.4L1530.8,111z
	"/>
<path class="st0" d="M1547.1,77.1l8.8,8.8l-8.8,8.8l7.4,7.5l8.9-8.9l8.8,8.9l9-9V80.8l-12.7-0.1V68.1h-12.4L1547.1,77.1z
	 M1610.1,157.7l-7.5,7.5l8.8,8.8l-8.8,8.9l9,8.9h12.4l0.1-12.6l12.6-0.1v-12.4l-9-9l-8.8,8.9L1610.1,157.7z M1581.2,123.6l-0.1,12.7
	h-12.6v12.4l9,9l8.8-8.8l8.8,8.8l7.5-7.4l-8.8-8.9l8.8-8.8l-9-9L1581.2,123.6z"/>
<path class="st0" d="M1586.3,166.6l-8.8-8.9l-9,9v12.4l12.6,0.1l0.1,12.6h12.4l9-8.9l-8.8-8.9l8.8-8.8l-7.5-7.5L1586.3,166.6z
	 M1624,123.6h-12.4l-9,9l8.8,8.8l-8.8,8.9l7.5,7.4l8.8-8.8l8.8,8.8l9-9v-12.4h-12.6L1624,123.6z M1665.6,213.2l-7.5,7.5l8.9,8.8
	l-8.9,8.9l9,9l12.5-0.1v-12.6h12.6v-12.5l-8.9-9l-8.9,8.9L1665.6,213.2z M1624,191.8v12.5l9,8.9l8.8-8.8l8.9,8.8l7.4-7.4l-8.8-8.9
	l8.8-8.8l-9-9h-12.4v12.7H1624z"/>
<path class="st0" d="M1641.8,222.1l-8.8-8.9l-9,9v12.5h12.7v12.6l12.4,0.1l9-9l-8.8-8.9l8.8-8.8l-7.4-7.5L1641.8,222.1z
	 M1658.1,188.1l8.9,8.8l-8.9,8.9l7.5,7.4l8.8-8.8l8.9,8.8l8.9-8.9v-12.5h-12.6v-12.7h-12.5L1658.1,188.1z M1721.1,268.8l-7.4,7.4
	l8.8,8.9l-8.8,8.8l9,9h12.4v-12.7h12.7v-12.4l-9-9l-8.9,8.8L1721.1,268.8z M1692.2,234.7v12.6h-12.6l-0.1,12.5l9,9l8.9-8.9l8.8,8.9
	l7.5-7.5l-8.9-8.8l8.9-8.9l-9-9L1692.2,234.7z M1697.4,277.6l-8.9-8.8l-9,9l0.1,12.4h12.6v12.7h12.5l9-9l-8.9-8.8l8.9-8.9l-7.5-7.4
	L1697.4,277.6z"/>
<path class="st0" d="M1735.1,234.7l-12.4-0.1l-9,9l8.8,8.9l-8.8,8.8l7.4,7.5l8.8-8.9l8.9,8.9l9-9v-12.5h-12.7L1735.1,234.7z
	 M1776.6,324.3l-7.4,7.5l8.8,8.8l-8.8,8.8l9,9h12.4l0.1-12.6l12.6-0.1v-12.4l-9-9l-8.8,8.8L1776.6,324.3z M1735.1,302.9v12.4l9,9
	l8.8-8.8l8.8,8.8l7.5-7.4l-8.9-8.9l8.9-8.8l-9-9h-12.4l-0.1,12.7L1735.1,302.9z"/>
<path class="st0" d="M1752.9,333.1l-8.8-8.8l-9,9v12.4l12.6,0.1l0.1,12.6h12.4l9-9l-8.9-8.8l8.9-8.8l-7.5-7.5L1752.9,333.1z
	 M1769.2,299.2l8.8,8.8l-8.8,8.9l7.4,7.4l8.9-8.8l8.8,8.8l9-9v-12.4h-12.6l-0.1-12.7h-12.4L1769.2,299.2z M1832.2,379.8l-7.5,7.5
	l8.9,8.8l-8.9,8.9l9,9l12.5-0.1v-12.6h12.6v-12.5l-8.9-9l-8.9,8.9L1832.2,379.8z M1803.3,345.7v12.7h-12.7v12.5l9,8.9l8.8-8.8
	l8.9,8.8l7.4-7.4l-8.8-8.9l8.8-8.8l-9-9L1803.3,345.7z"/>
<path class="st0" d="M1808.4,388.7l-8.8-8.9l-9,9v12.5h12.7v12.6l12.4,0.1l9-9l-8.8-8.9l8.8-8.8l-7.4-7.5L1808.4,388.7z
	 M1846.2,345.7h-12.5l-9,9l8.9,8.8l-8.9,8.9l7.5,7.4l8.8-8.8l8.9,8.8l8.9-8.9v-12.5h-12.6L1846.2,345.7z M1905.4,435.4l-8.8,8.8
	l-8.9-8.8l-7.5,7.4l7.2,7.2h27v-5.6L1905.4,435.4z M1846.2,413.9l-0.1,12.5l9,9l8.9-8.9l8.8,8.9l7.4-7.5l-8.8-8.8l8.8-8.9l-8.9-9
	l-12.5,0.1v12.6L1846.2,413.9z M1864,444.2l-8.9-8.8l-9,9v5.6h27l7.1-7.2l-7.4-7.4L1864,444.2z"/>
<path class="st0" d="M1880.2,410.2l8.9,8.9l-8.9,8.8l7.5,7.5l8.9-8.9l8.8,8.9l9-9l-0.1-12.5h-12.6v-12.6l-12.5-0.1L1880.2,410.2z
	 M1555.9,7.4l-8.8,8.9l9,8.9h12.4V12.6h12.7V0.1l-0.1-0.1h-32.6L1555.9,7.4z M1545.6,0h-32.5l-0.2,0.1l0.1,12.5h12.6v12.6h12.5
	l9-8.9l-8.9-8.9L1545.6,0z M1610.1,46.7l-7.5,7.4l8.8,8.9l-8.8,8.8l9,9h12.4l0.1-12.7h12.6V55.6l-9-8.9l-8.8,8.8L1610.1,46.7z"/>
<path class="st0" d="M1568.5,25.2v12.5l9,9l8.8-8.9l8.8,8.9l7.5-7.5l-8.8-8.8l8.8-8.9l-9-9l-12.4,0.1l-0.1,12.6L1568.5,25.2z
	 M1586.3,55.5l-8.8-8.8l-9,8.9v12.5h12.6l0.1,12.7h12.4l9-9l-8.8-8.8l8.8-8.9l-7.5-7.4L1586.3,55.5z M1602.6,21.5l8.8,8.9l-8.8,8.8
	l7.5,7.5l8.8-8.9l8.8,8.9l9-9V25.2h-12.6l-0.1-12.6l-12.4-0.1L1602.6,21.5z M1665.6,102.2l-7.5,7.4l8.9,8.9l-8.9,8.8l9,9h12.5v-12.7
	h12.6v-12.4l-8.9-9l-8.9,8.8L1665.6,102.2z M1624,80.8v12.4l9,9l8.8-8.9l8.9,8.9l7.4-7.5l-8.8-8.8l8.8-8.8l-9-9h-12.4v12.6
	L1624,80.8z"/>
<path class="st0" d="M1641.8,111l-8.8-8.8l-9,9v12.4h12.7v12.7h12.4l9-9l-8.8-8.8l8.8-8.9l-7.4-7.4L1641.8,111z M1658.1,77.1
	l8.9,8.8l-8.9,8.8l7.5,7.5l8.8-8.9l8.9,8.9l8.9-9V80.8l-12.6-0.1V68.1h-12.5L1658.1,77.1z M1721.1,157.7l-7.4,7.5l8.8,8.8l-8.8,8.9
	l9,8.9h12.4v-12.6l12.7-0.1v-12.4l-9-9l-8.9,8.9L1721.1,157.7z M1692.2,123.6v12.7h-12.6l-0.1,12.4l9,9l8.9-8.8l8.8,8.8l7.5-7.4
	l-8.9-8.9l8.9-8.8l-9-9L1692.2,123.6z"/>
<path class="st0" d="M1697.4,166.6l-8.9-8.9l-9,9l0.1,12.4l12.6,0.1v12.6h12.5l9-8.9l-8.9-8.9l8.9-8.8l-7.5-7.5L1697.4,166.6z
	 M1735.1,123.6h-12.4l-9,9l8.8,8.8l-8.8,8.9l7.4,7.4l8.8-8.8l8.9,8.8l9-9v-12.4h-12.7L1735.1,123.6z M1776.6,213.2l-7.4,7.5l8.8,8.8
	l-8.8,8.9l9,9l12.4-0.1l0.1-12.6h12.6v-12.5l-9-9l-8.8,8.9L1776.6,213.2z M1735.1,191.8v12.5l9,8.9l8.8-8.8l8.8,8.8l7.5-7.4
	l-8.9-8.9l8.9-8.8l-9-9h-12.4l-0.1,12.7H1735.1z"/>
<path class="st0" d="M1752.9,222.1l-8.8-8.9l-9,9v12.5h12.6l0.1,12.6l12.4,0.1l9-9l-8.9-8.9l8.9-8.8l-7.5-7.5L1752.9,222.1z
	 M1769.2,188.1l8.8,8.8l-8.8,8.9l7.4,7.4l8.9-8.8l8.8,8.8l9-8.9v-12.5h-12.6l-0.1-12.7h-12.4L1769.2,188.1z M1832.2,268.8l-7.5,7.4
	l8.9,8.9l-8.9,8.8l9,9h12.5v-12.7h12.6v-12.4l-8.9-9l-8.9,8.8L1832.2,268.8z M1803.3,234.7v12.6h-12.7v12.5l9,9l8.8-8.9l8.9,8.9
	l7.4-7.5l-8.8-8.8l8.8-8.9l-9-9L1803.3,234.7z"/>
<path class="st0" d="M1808.4,277.6l-8.8-8.8l-9,9v12.4h12.7v12.7h12.4l9-9l-8.8-8.8l8.8-8.9l-7.4-7.4L1808.4,277.6z M1846.2,234.7
	l-12.5-0.1l-9,9l8.9,8.9l-8.9,8.8l7.5,7.5l8.8-8.9l8.9,8.9l8.9-9v-12.5h-12.6L1846.2,234.7z M1887.7,324.3l-7.5,7.5l8.9,8.8
	l-8.9,8.8l9,9h12.5v-12.6l12.6-0.1l0.1-12.4l-9-9l-8.8,8.8L1887.7,324.3z M1846.2,302.9l-0.1,12.4l9,9l8.9-8.8l8.8,8.8l7.4-7.4
	l-8.8-8.9l8.8-8.8l-8.9-9h-12.5v12.7L1846.2,302.9z M1864,333.1l-8.9-8.8l-9,9l0.1,12.4l12.6,0.1v12.6h12.5l8.9-9l-8.8-8.8l8.8-8.8
	l-7.4-7.5L1864,333.1z"/>
<path class="st0" d="M1880.2,299.2l8.9,8.8l-8.9,8.9l7.5,7.4l8.9-8.8l8.8,8.8l9-9l-0.1-12.4h-12.6v-12.7h-12.5L1880.2,299.2z
	 M1914.3,358.4h-12.6v12.5l9,8.9l8.8-8.8l0.5,0.5v-25.8h-5.7L1914.3,358.4z M1919.5,388.7l-8.8-8.9l-9,9v12.5h12.6v12.6l5.7,0.1
	v-25.8L1919.5,388.7z M1667,7.4l-8.9,8.9l9,8.9h12.5V12.6h12.6V0.1l-0.1-0.1h-32.5L1667,7.4z"/>
<path class="st0" d="M1656.7,0h-32.6l-0.1,0.1v12.5h12.7v12.6h12.4l9-8.9l-8.8-8.9L1656.7,0z M1721.1,46.7l-7.4,7.4l8.8,8.9
	l-8.8,8.8l9,9h12.4V68.1h12.7V55.6l-9-8.9l-8.9,8.8L1721.1,46.7z M1679.6,25.2l-0.1,12.5l9,9l8.9-8.9l8.8,8.9l7.5-7.5l-8.9-8.8
	l8.9-8.9l-9-9l-12.5,0.1v12.6L1679.6,25.2z M1697.4,55.5l-8.9-8.8l-9,8.9l0.1,12.5h12.6v12.7h12.5l9-9l-8.9-8.8l8.9-8.9l-7.5-7.4
	L1697.4,55.5z M1713.7,21.5l8.8,8.9l-8.8,8.8l7.4,7.5l8.8-8.9l8.9,8.9l9-9V24.8h-12.3V12.6l-12.8-0.1L1713.7,21.5z M1776.6,102.2
	l-7.4,7.4l8.8,8.9l-8.8,8.8l9,9h12.4l0.1-12.7h12.6v-12.4l-9-9l-8.8,8.8L1776.6,102.2z"/>
<path class="st0" d="M1735.1,80.8v12.4l9,9l8.8-8.9l8.8,8.9l7.5-7.5l-8.9-8.8l8.9-8.8l-9-9h-12.4l-0.1,12.6L1735.1,80.8z
	 M1752.9,111l-8.8-8.8l-9,9v12.4h12.6l0.1,12.7h12.4l9-9l-8.9-8.8l8.9-8.9l-7.5-7.4L1752.9,111z M1769.2,77.1l8.8,8.8l-8.8,8.8
	l7.4,7.5l8.9-8.9l8.8,8.9l9-9V80.3h-12.2l-0.1-12.2h-12.8L1769.2,77.1z M1832.2,157.7l-7.5,7.5l8.9,8.8l-8.9,8.9l9,8.9h12.5v-12.6
	l12.6-0.1v-12.4l-8.9-9l-8.9,8.9L1832.2,157.7z M1803.3,123.6v12.7h-12.7v12.4l9,9l8.8-8.8l8.9,8.8l7.4-7.4l-8.8-8.9l8.8-8.8l-9-9
	L1803.3,123.6z"/>
<path class="st0" d="M1808.4,166.6l-8.8-8.9l-9,9v12.4l12.7,0.1v12.6h12.4l9-8.9l-8.8-8.9l8.8-8.8l-7.4-7.5L1808.4,166.6z
	 M1846.6,123.6h-12.9l-9,9l8.9,8.8l-8.9,8.9l7.5,7.4l8.8-8.8l8.9,8.8l8.9-9v-12.8l-12.2-0.1L1846.6,123.6z M1887.7,213.2l-7.5,7.5
	l8.9,8.8l-8.9,8.9l9,9l12.5-0.1v-12.6h12.6l0.1-12.5l-9-9l-8.8,8.9L1887.7,213.2z M1846.2,191.8l-0.1,12.5l9,8.9l8.9-8.8l8.8,8.8
	l7.4-7.4l-8.8-8.9l8.8-8.8l-8.9-9h-12.5v12.7H1846.2z"/>
<path class="st0" d="M1864,222.1l-8.9-8.9l-9,9l0.1,12.5h12.6v12.6l12.5,0.1l8.9-9l-8.8-8.9l8.8-8.8l-7.4-7.5L1864,222.1z
	 M1880.2,188.1l8.9,8.8l-8.9,8.9l7.5,7.4l8.9-8.8l8.8,8.8l9-8.9l-0.1-12.9h-12.2v-12.3h-12.9L1880.2,188.1z M1914.3,247.3h-12.6
	v12.5l9,9l8.8-8.9l0.5,0.6v-25.8h-5.7L1914.3,247.3z M1919.5,277.6l-8.8-8.8l-9,9v12.4h12.6v12.7h5.7v-25.8L1919.5,277.6z M1778.4,7
	l-8.8,8.8l9,9h12.4l0.1-12.6l12.6-0.1V0h-32.3L1778.4,7z M1767.8,0h-32.3v12.6h12.2l0.1,12.2h12.8l9-9l-8.8-8.8L1767.8,0z
	 M1832.6,46.2l-7.5,7.5l8.9,8.8l-8.9,8.9l9,9l12.5-0.1V67.7h12.6l0.1-12.5l-9-9l-8.9,8.9L1832.6,46.2z"/>
<path class="st0" d="M1791,24.8v12.4l9,9l8.8-8.8l8.9,8.8l7.4-7.4l-8.8-8.9l8.8-8.8l-8.9-9h-12.5v12.7L1791,24.8z M1808.8,55.1
	l-8.8-8.9l-9,9v12.9h12.3v12.2l12.9,0.1l8.9-9l-8.8-8.9l8.8-8.8l-7.4-7.5L1808.8,55.1z"/>
<path class="st0" d="M1825.1,21.1l8.9,8.8l-8.9,8.9l7.5,7.4l8.8-8.8l8.9,8.8l9-9l-0.1-12.4h-12.6V12.1h-12.5L1825.1,21.1z
	 M1888.1,101.8l-7.4,7.4l8.8,8.9l-8.8,8.8l9,9h12.4v-12.7h12.7v-12.4l-9-9l-8.8,8.8L1888.1,101.8z M1846.6,80.3l-0.1,12.5l9,9
	l8.9-8.9l8.8,8.9l7.5-7.5l-8.9-8.8l8.9-8.9l-9-8.9h-12.5v12.6L1846.6,80.3z"/>
<path class="st0" d="M1864.4,110.6l-8.9-8.8l-9,9l0.1,12.8h12.2v12.3h12.9l9-9l-8.9-8.8l8.9-8.9l-7.5-7.4L1864.4,110.6z
	 M1880.7,76.6l8.8,8.9l-8.8,8.8l7.4,7.5l8.9-8.9l8.8,8.9l9-9V80.3h-12.7V67.7h-12.4L1880.7,76.6z M1914.7,135.8l-12.6,0.1v12.4l9,9
	l8.8-8.8l0.1,0.1v-25.4h-5.2L1914.7,135.8z"/>
<path class="st0" d="M1919.9,166.1l-8.8-8.8l-9,9v12.8l12.2,0.1v12.2h5.7L1919.9,166.1L1919.9,166.1z M1889.5,7l-8.8,8.8l9,9h12.4
	V12.2l12.7-0.1V0h-32.3L1889.5,7z M1878.8,0h-32.2v12.1l12.6,0.1v12.6h12.5l9-9l-8.9-8.8L1878.8,0z"/>
<path class="st0" d="M1914.7,24.8h-12.6v12.4l9,9l8.8-8.8l0.1,0.1V12.1h-5.2L1914.7,24.8z M1919.9,55.1l-8.8-8.9l-9,9v12.5h12.6
	l0.1,12.6h5.2L1919.9,55.1L1919.9,55.1z"/>
</svg>
